<svg xmlns="http://www.w3.org/2000/svg" width="57.633" height="59.998" viewBox="0 0 57.633 59.998"><defs><style>.a{fill:#2d6ec9;}.b{fill:#fff;}</style></defs><path class="a" d="M433.659.32a2.491,2.491,0,0,0-3.392.948L427.379,6.4a7.484,7.484,0,0,1,2.035,6.536l5.193-9.219A2.491,2.491,0,0,0,433.659.32Zm0,0" transform="translate(-377.295 0)"/><path class="a" d="M84.948,161.607l-6.846-.23.742-5.312.213,3.732,2.292.077,1.742-2.944a3.839,3.839,0,0,0-.653-4.729l1.977-1.333a7.413,7.413,0,0,1-6.244-1.375L52,181.676a3.729,3.729,0,0,1-4.129,1.171L43.828,187a2.93,2.93,0,1,0,4.2,4.086L59.788,179a2.9,2.9,0,0,0,.358-.447c6.1-9.388,5.7-8.773,5.777-8.9l1.664.984,1.409,8.8-7.422,6.16a2.93,2.93,0,0,0,3.743,4.509l8.708-7.228a2.928,2.928,0,0,0,1.022-2.718l-1.214-7.576,2.755-4.658-2.212-.075a3.5,3.5,0,0,1-3.185-4.642l2.5-6.265-.906,6.488a2.491,2.491,0,0,0,2.383,2.834l9.611.324h.085a2.491,2.491,0,0,0,.082-4.98Zm0,0" transform="translate(-37.959 -131.974)"/><path class="b" d="M12.666,162.052l25.967-31.932-1.787-1.057a3.83,3.83,0,0,0-3.984.051L.924,149.134a1.969,1.969,0,0,0-.406,3l9.169,10.007A1.969,1.969,0,0,0,12.666,162.052Zm0,0" transform="translate(0 -113.468)"/><path class="a" d="M342.223,51.577a5.681,5.681,0,1,0,2,7.782A5.681,5.681,0,0,0,342.223,51.577Zm0,0" transform="translate(-294.549 -44.834)"/></svg>