<svg xmlns="http://www.w3.org/2000/svg" width="40" height="40" viewBox="0 0 40 40"><defs><style>.a{fill:#26a6d1;}.b{fill:#fff;}</style></defs><path class="a" d="M20,0A20,20,0,1,1,0,20,20,20,0,0,1,20,0Z"/><path class="b" d="M87.464,84.2a9.96,9.96,0,0,1-2.8.746,4.769,4.769,0,0,0,2.144-2.619,9.881,9.881,0,0,1-3.1,1.149,4.937,4.937,0,0,0-3.557-1.493,4.8,4.8,0,0,0-4.872,4.729,4.591,4.591,0,0,0,.126,1.079,13.98,13.98,0,0,1-10.045-4.942,4.594,4.594,0,0,0-.66,2.377,4.69,4.69,0,0,0,2.168,3.936,4.955,4.955,0,0,1-2.209-.592v.06a4.771,4.771,0,0,0,3.91,4.639,5.04,5.04,0,0,1-1.284.166,4.914,4.914,0,0,1-.916-.085,4.861,4.861,0,0,0,4.554,3.285,9.964,9.964,0,0,1-6.054,2.025,10.248,10.248,0,0,1-1.164-.066,14.1,14.1,0,0,0,7.472,2.126,13.562,13.562,0,0,0,13.868-13.46l-.014-.613A9.727,9.727,0,0,0,87.464,84.2Z" transform="translate(-54.96 -70.73)"/></svg>