<?xml version="1.0" standalone="no"?>
<!DOCTYPE svg PUBLIC "-//W3C//DTD SVG 20010904//EN"
 "http://www.w3.org/TR/2001/REC-SVG-20010904/DTD/svg10.dtd">
<svg version="1.0" xmlns="http://www.w3.org/2000/svg"
 width="260.000000pt" height="260.000000pt" viewBox="0 0 260.000000 260.000000"
 preserveAspectRatio="xMidYMid meet">
<metadata>
Created by potrace 1.14, written by Peter Selinger 2001-2017
</metadata>
<g transform="translate(0.000000,260.000000) scale(0.100000,-0.100000)"
fill="#000000" stroke="none">
<path d="M1007 2225 c-46 -17 -94 -50 -106 -73 -6 -11 -4 -37 5 -72 41 -158
-8 -495 -127 -881 -115 -371 -267 -634 -410 -710 -38 -20 -56 -23 -133 -21
-96 2 -116 -6 -116 -44 0 -42 39 -57 138 -52 116 5 183 40 286 148 123 129
204 288 310 613 34 103 65 185 69 181 4 -4 7 -91 7 -193 1 -343 48 -594 126
-675 31 -31 41 -36 83 -36 129 0 266 176 524 678 66 127 124 232 129 232 4 0
8 -44 8 -98 0 -313 80 -540 203 -573 76 -20 145 11 253 113 110 105 223 283
209 329 -8 24 -42 34 -62 18 -9 -8 -49 -64 -89 -125 -81 -124 -146 -188 -199
-198 -45 -9 -70 6 -94 52 -36 71 -44 150 -38 365 6 200 17 299 56 554 24 151
26 217 8 253 -14 28 -35 35 -83 25 -45 -8 -69 -46 -90 -145 -33 -152 -410
-927 -560 -1150 -55 -83 -78 -100 -103 -76 -14 15 -16 84 -16 734 0 732 -2
766 -38 816 -18 25 -99 31 -150 11z"/>
</g>
</svg>
