<svg xmlns="http://www.w3.org/2000/svg" width="2283.355" height="1629.809" viewBox="0 0 2283.355 1629.809"><defs><style>.a{fill:#4b3d87;}</style></defs><path class="a" d="M-220.441,2009.145c0-80.12,5.924-202.419,189.727-252.582s261.9,91.4,407.676,126.924,237.686-119.842,362.691-119.842,51.629,169.105,213.566,119.842,132.306-460.249,300.383-460.249,158.962,171.3,278.418,366.794,241.866,63.779,281.137-7.5,86.7-186.524,163.645-183.174,68.73,557.539,68.73,557.539-10.211,563.217-22.926,670.028-105.631,368.164-342.367,127.039-490.816-284.867-643.967-184.45S765.146,2971.026,657.4,2904.682s-269.461-211.212-380-179.208S105.719,2916.505-45.141,2943.795s-192.43-51.25-192.43-281.519S-220.441,2089.265-220.441,2009.145Z" transform="translate(237.57 -1423.238)"/></svg>