<svg xmlns="http://www.w3.org/2000/svg" width="1280" height="347.238" viewBox="0 0 1280 347.238">
  <defs>
    <style>
      .cls-1 {
        fill: #7dd5d1;
      }

      .cls-2 {
        fill: #4d88d9;
      }
    </style>
  </defs>
  <g id="Group_68" data-name="Group 68" transform="translate(23500 -22252.285)">
    <path id="Path_168" data-name="Path 168" class="cls-1" d="M1476,4663.289c202.353-.9,294.342,176.735,475.254,112.341,210.363-74.877,149.281,159.158,382.035,57.762,147.8-64.386,282.433-136.815,422.711-163.584v32.6c0,88.231-10,307.015-10,307.015H1486c0-223.512-10-291.446-10-323.077Z" transform="translate(-24976 17589)"/>
    <path id="Path_169" data-name="Path 169" class="cls-2" d="M2617,5247.523V4935.977c-125.736,39.639-137.816,116.538-282.219,32.471-206.289-120.1-302.832,67.6-524.2,112.946-150.969,30.922-312.172-143.384-473.586-161.1v327.233Z" transform="translate(-24837 17352)"/>
  </g>
</svg>
