<?xml version="1.0" encoding="utf-8"?>
<!-- Generator: Adobe Illustrator 25.4.1, SVG Export Plug-In . SVG Version: 6.00 Build 0)  -->
<svg version="1.1" id="Layer_1" xmlns="http://www.w3.org/2000/svg" xmlns:xlink="http://www.w3.org/1999/xlink" x="0px" y="0px"
	 viewBox="0 0 566.9 566.9" style="enable-background:new 0 0 566.9 566.9;" xml:space="preserve">
<style type="text/css">
	.st0{fill:#FFFFFF;}
	.st1{fill:#010101;}
</style>
<path d="M85.7,322.9c0.4,0,0.4,1.5,0.4,1.7c0,17.7,0.2,45.2,7.1,61.3c1.8,4.3,5.3,8.2,10.7,8.2c20.3,0,50.4-70.5,53.7-71.6
	c0.2,0.2,0.2,0.4,0.2,0.5c0,13.2,0.2,52.6,20.5,52.6c6.6,0,14-5.3,20.2-11.8c0.8,6.9,3.7,15,11.6,15c10.5,0,22.5-16.9,27.7-24.5
	c0,8.7,1.6,28.8,14.6,28.8c11.2,0,22.8-11.1,30.7-20.5c-0.9,6.2-1.4,12.4-1.4,18.4c0,2.4,1.4,4.6,4.1,4.6c3.7,0,6.5-3,8.1-6
	c4.5-9.3,9.1-18.4,14.8-27.1c4.7-7.2,10.7-15.8,17.2-21.7c1-0.9,3.2-3,4.5-3c1.6,0,1.8,2.8,1.8,3.7l-0.8,21.2c0,0.9,0,1.9,0,2.8
	c0,9.3,2.2,21.8,14.4,21.8c10.2,0,21.6-9.5,29.6-19.2c0.1,11.1,4.9,24.5,19,24.5c5.5,0,10.9-2,15.4-4.8c15-9.5,21.1-27.3,21.1-43.7
	c0-11.1-3.9-25.4-18.6-25.4c-16.9,0-28.6,15.9-33.8,31.7c-0.6,0.8-1.1,1.6-1.5,2.3c-4.5,8.2-16.8,25.6-27.3,25.6
	c-6.1,0-6.3-6.9-6.3-11.1v-26c0-5.4-0.2-18-7.9-18c-10.3,0-34.4,33.1-34.4,33.1c1-7.2,2.6-14.5,5.3-21.4c2.4-6,5.1-13.6,5.1-19.9
	c0-3.9-1.4-6.3-5.9-6.3c-4.9,0-10.5,4.4-11.5,8.9c-1.4,5.8-2.4,11.7-3.6,17.5c-1.6,7.1-3.3,14.6-4.9,22.3c-1.3,1.3-2.2,2.8-2.2,2.8
	c-5.3,6.7-20.1,25.1-29.4,25.1c-6.1,0-6.3-14.3-6.3-18.2c0-6.5,0.8-14.3,3-20.6c1-2.8,3.6-8.2,3.6-10.8c0-2.4-2.6-3-4.5-3
	c-3.8,0-5.3,2.8-6.7,5.6c-3.7,7.6-20.3,40.5-29.2,40.5c-2.4,0-2.6-3-2.6-4.5c0-13.9,6.5-26.6,16.8-36.4c5.7-5.6,12.2-9.9,19.4-13.7
	c1-0.6,2-1.1,2-2.2c0-2.6-3.8-5.8-6.5-5.8c-20,0-38.7,25.4-43.5,44.9c-4.6,6.8-10.4,14-17.8,14c-7.9,0-9.1-17.5-9.1-22.9
	c0-16.9,2-33.7,4.7-50.2c1-5.6,2-11.1,2-16.7c0-3.2,0-7.8-4.6-7.8c-1.4,0-3.3,0.4-4.7,0.9c-4.7,1.9-5.5,9.3-6.5,13.6
	c-1.6,6.7-5.5,13-8.5,19.3c-6.5,13.6-13.4,26.8-20.7,40c-4.9,8.9-9.9,17.8-15.6,26.4c-1.4,1.8-5.1,7.8-7.7,7.8
	c-3.2,0-3.4-12.1-3.4-19.5c0.6-78.8,0.6-82.7,0.6-85.9c0-6.9-1.2-15.4-4.3-16.9c-1.6-0.7-3.8-1.1-5.5-1.1c-4,0-14.8,4.3-14.8,8.7
	c0,0.4,0,0.7,0.2,1.1c1.8,5,2.2,10,2.2,15.3c0,23.4-22.1,112.7-53.7,112.7l-8.5-0.9c-2.2,0-3.7,1.7-3.7,3.7c0,4.5,5.5,4.8,9.1,4.8
	c32.4,0,47-45.8,55.7-72.5C84.9,324.4,85.3,322.9,85.7,322.9z M412.5,320.9c8.5,0,10.3,10.6,10.3,16.7c0,11.3-4.1,25.1-14,32.3
	c-2.6,1.9-5.7,3.5-9.1,3.5c-8.1,0-9.9-9.3-9.9-15.2C389.7,347.1,397.6,320.9,412.5,320.9z"/>
<path d="M543.6,338.3c-2.2,0-3.8,2.6-4.7,4.3c-4.6,8.2-16.8,25.6-27.3,25.6c-6.1,0-6.3-6.9-6.3-11.1v-26c0-5.4-0.2-18-7.9-18
	c-10.3,0-34.4,33.1-34.4,33.1c1-7.2,2.6-14.5,5.3-21.4c2.4-6,5.1-13.6,5.1-19.9c0-3.9-1.4-6.3-5.9-6.3c-5,0-10.5,4.4-11.5,8.9
	c-1.4,5.8-2.4,11.7-3.6,17.5c-4,17.8-9.1,37.9-9.1,56.1c0,2.4,1.4,4.6,4.2,4.6c3.8,0,6.5-3,8.1-6c4.5-9.3,9.1-18.4,14.8-27.1
	c4.7-7.2,10.7-15.8,17.2-21.7c1-0.9,3.2-3,4.5-3c1.6,0,1.8,2.8,1.8,3.7l-0.8,21.2c0,0.9,0,1.9,0,2.8c0,9.3,2.2,21.8,14.4,21.8
	c14.8,0,32.2-20.1,37.9-31.6c0.4-0.9,1.4-2.8,1.4-3.7C547,340.4,545.6,338.3,543.6,338.3z"/>
<path class="st0" d="M280.8,234h-13.5v5.6c0,11.7,9.5,21.3,21.3,21.3c11.7,0,21.2-9.5,21.2-21.3v-51.5c0-11.7-9.5-21.3-21.2-21.3
	s-21.2,9.5-21.3,21.2h13.5c1.8,0,3.2,1.4,3.2,3.2s-1.4,3.2-3.2,3.2h-13.5v6.8h13.5c1.8,0,3.2,1.4,3.2,3.2s-1.4,3.2-3.2,3.2h-13.5
	v6.8h13.5c1.8,0,3.2,1.4,3.2,3.2s-1.4,3.2-3.2,3.2h-13.5v6.8h13.5c1.8,0,3.2,1.4,3.2,3.2C283.9,232.6,282.5,234,280.8,234z"/>
<path class="st0" d="M289.5,286.9c17,0,33,1,46.9,2.7c-9.6-3.4-26-5.6-44.8-5.8v-12.1c16.3-1.6,29.1-15.4,29.1-32.1
	c0-1.8-1.4-3.2-3.2-3.2s-3.2,1.4-3.2,3.2c0,14.3-11.6,26-25.9,26s-25.9-11.6-25.9-26c0-1.8-1.4-3.2-3.2-3.2c-1.8,0-3.2,1.4-3.2,3.2
	c0,16.8,12.8,30.5,29.1,32.1v12c0.5,0,1.1,0.1,1.7,0.1c-18.6,0.2-34.9,2.4-44.4,5.8C256.6,287.8,272.5,286.9,289.5,286.9z"/>
<path class="st0" d="M340.3,228.3c7.2,0,13.1-5.9,13.1-13.1v-17.6c0-5.7-3.7-10.6-8.8-12.3c-0.2-30.8-25.3-55.7-56.1-55.7
	s-55.9,25-56,55.7c-5.1,1.8-8.8,6.6-8.8,12.4v17.6c0,7.2,5.9,13.1,13.1,13.1c0.7,0,1.4-0.1,2.1-0.2v-42.5h0.1
	c0-27.3,22.2-49.6,49.6-49.6c27.3,0,49.6,22.2,49.6,49.6l0,0v42.5C338.8,228.2,339.5,228.3,340.3,228.3z"/>
<path class="st1" d="M528.1,309.1c0-0.2,0.1-0.4,0.1-0.7C528.1,308.4,528.1,308.6,528.1,309.1z"/>
<path class="st1" d="M524.8,329c3.2-17.9,3.7-35.2,3.4-42.7c-0.6-8.5,0.3-5-1.9,22c-1.7,16.4-5.2,32.6-10.3,48.3
	c1.6-1.3,3.4-3,5.2-5.1c7-24.3,6.8-39.1,6.9-42.4C526.9,319.5,526.3,321.7,524.8,329z"/>
<path class="st1" d="M513.6,386c-0.4,0.1-0.7,0.1-1.1,0.2c-8.9,18.8-20.3,37.6-31.5,50.3l-0.5-0.4c10.8-12.7,22.3-31.2,31.2-49.8
	c-1.2,0.2-2.4,0.3-3.6,0.3c-0.2,0.4-0.3,0.7-0.5,1.1c0.2-0.4,0.3-0.7,0.5-1.1c-0.1,0-0.3,0-0.4,0c-0.9,0-2.3-0.1-3.8-0.3
	c-14.1,28.9-34.2,55-58.8,75.9c-45.3,39-106,59.4-165.8,55.7c-59.9-3.1-118.1-30.7-158.7-75c-19.1-20.4-34.2-44.4-44.8-70.3
	c-1.9,3.4-3.9,6.6-6,9.7c17.7,39.7,46.2,76,83.4,101.5c63.7,45.7,148.7,54.7,214.7,32.1c20.1-6.5,46-18.3,67.3-33.9
	c21.6-15.3,38.5-33.6,46.9-44.9c-8.9,10.9-18.7,21-29.3,30.3C478,444.8,499.2,417,513.6,386z"/>
<path class="st1" d="M57.7,349.9c2.1-4.8,4.2-10,6-15.2c-4.1-18.4-6-37.2-5.5-56.1c0.9-60.2,26.5-119.5,69.5-161.6
	C170.4,74.4,229.9,49.3,290,49c60.1-1,120,22.2,163.5,63.3c43.9,40.7,71.1,98.6,74.2,158.1c1.1,27.2,0.7,13.6,1.5,13.6
	c0.5-55-21.4-107.7-45.9-140.4c-8.1-11,8.7,10.6,1-0.7c-7.8-11.4-26.7-31.5-37.5-40.1c-10-9.5,11.3,8.1,1.2-1.5
	c-5-4.8-18.6-15.7-33.6-24.4c-14.9-8.9-31-15.6-37.4-18.1c-39.8-13.5,28.6,5,61,32.8c-10.5-9,21.5,17,21.5,17.7
	c0-0.6-0.8-7.1-43.2-35.6c-12.1-7.2,0.4-0.7,0.7-1.1c-72.8-44.2-173.5-45.8-249.5,0.8c-77,44.9-123.5,134.1-118.7,219
	C49.1,311.4,52.2,330.8,57.7,349.9z"/>
<path class="st1" d="M214.8,430.9c6.3,0,9.7-3.8,9.7-10.6c0-6.9-3.5-10.6-9.7-10.6H208c-0.9,0-1.2,0.4-1.2,1.2v18.8
	c0,0.8,0.4,1.2,1.2,1.2H214.8z M211.5,413.6h3.3c3.2,0,4.9,2.3,4.9,6.6c0,4.3-1.7,6.7-4.9,6.7h-3.3V413.6z"/>
<path class="st1" d="M241.8,413.6c0.6,0,0.9-0.5,0.9-1.5v-0.9c0-1.1-0.3-1.5-0.9-1.5h-11.1c-0.9,0-1.2,0.4-1.2,1.2v18.8
	c0,0.8,0.4,1.2,1.2,1.2h11.1c0.6,0,0.9-0.5,0.9-1.5v-0.9c0-1.1-0.3-1.5-0.9-1.5h-7.7v-5h6.8c0.6,0,0.9-0.5,0.9-1.5v-0.9
	c0-1.1-0.3-1.5-0.9-1.5h-6.8v-4.4h7.7V413.6z"/>
<path class="st1" d="M265.7,413.4c2.9,0,4.2,1,4.6,1c0.8,0,2-2,2-2.9c0-1.3-3.8-2.1-6.5-2.1c-6.7,0-10.1,3.6-10.1,10.8
	c0,7.5,3.2,10.9,10,10.9c2.2,0,7.1-0.3,7.1-2.4v-8.4c0-0.9-0.4-1.2-1.2-1.2h-6.2c-0.6,0-0.9,0.5-0.9,1.5v1c0,1.1,0.3,1.5,0.9,1.5
	h2.7v3.9c-0.8,0.1-1.5,0.2-2.4,0.2c-3.5,0-5.2-2.4-5.2-6.9C260.4,415.7,262.1,413.4,265.7,413.4z"/>
<path class="st1" d="M283,430v-7.4h1.2c2,0,2.5,0.6,3.1,1.8l2.4,5.9c0.2,0.5,0.9,0.6,1.8,0.6h1.2c1.2,0,1.8-0.2,1.8-0.6
	c0-0.1-0.1-0.3-0.2-0.6l-2.7-6.7c-0.5-1.3-1.4-2.5-2.2-2.8v-0.1c2.1-0.8,3.6-2.5,3.6-4.8c0-3.6-2.3-5.7-7.6-5.7h-5.9
	c-0.9,0-1.2,0.4-1.2,1.2V430c0,0.6,0.5,1,1.8,1h1C282.4,431,283,430.7,283,430z M283,413.6h2.7c1.6,0,2.5,0.9,2.5,2.3
	c0,1.5-1.1,2.6-2.3,2.6H283V413.6z"/>
<path class="st1" d="M307.4,409.4c-6.3,0-9.8,3.9-9.8,10.9s3.5,10.9,9.8,10.9c6.2,0,9.7-3.9,9.7-10.9S313.6,409.4,307.4,409.4z
	 M307.4,427.2c-3.3,0-5-2.4-5-6.9s1.7-6.9,5-6.9c3.2,0,4.9,2.4,4.9,6.9C312.3,424.8,310.6,427.2,307.4,427.2z"/>
<path class="st1" d="M340.8,420.3c0-7-3.5-10.9-9.7-10.9s-9.8,3.9-9.8,10.9s3.5,10.9,9.8,10.9S340.8,427.3,340.8,420.3z
	 M331.1,427.2c-3.3,0-5-2.4-5-6.9s1.7-6.9,5-6.9c3.2,0,4.9,2.4,4.9,6.9C336,424.8,334.3,427.2,331.1,427.2z"/>
<path class="st1" d="M360.1,412.1v-0.9c0-1.1-0.3-1.5-0.9-1.5h-14.4c-0.6,0-0.9,0.5-0.9,1.5v0.9c0,1.1,0.3,1.5,0.9,1.5h4.8V430
	c0,0.6,0.5,1,1.8,1h1.1c1.3,0,1.8-0.3,1.8-1v-16.4h4.8C359.9,413.6,360.1,413.2,360.1,412.1z"/>
<path class="st1" d="M205.2,446.1c-0.9,0-1.6,0.2-1.8,0.9l-4.2,13.2l-0.3,1.1h-0.1l-0.3-1.1l-4.1-13.2c-0.2-0.7-0.9-0.9-1.8-0.9h-1
	c-1.3,0-1.9,0.2-1.9,0.7c0,0.2,0.1,0.3,0.1,0.6l6.6,19.5c0.2,0.5,0.8,0.6,1.7,0.6h1.6c0.9,0,1.6-0.2,1.7-0.6l6.6-19.5
	c0.1-0.2,0.1-0.4,0.1-0.6c0-0.4-0.5-0.7-1.8-0.7H205.2z"/>
<path class="st1" d="M211.6,467.4h1.2c0.7,0,1.2-0.2,1.4-0.6l1.2-3.7h7.2l1.2,3.7c0.2,0.5,0.8,0.6,1.7,0.6h1.3
	c1.1,0,1.5-0.2,1.5-0.7c0-0.2,0-0.3-0.1-0.6l-6.7-19.5c-0.2-0.5-0.9-0.6-1.7-0.6h-1.6c-0.9,0-1.5,0.1-1.7,0.6l-6.7,19.5
	c-0.1,0.2-0.1,0.4-0.1,0.6C209.7,467.2,210.3,467.4,211.6,467.4z M218.5,453.7c0.2-0.6,0.3-1.3,0.5-1.9h0.1c0.1,0.6,0.2,1.3,0.5,1.9
	l1.7,5.4h-4.6L218.5,453.7z"/>
<path class="st1" d="M233.8,467.4h0.9c1.3,0,1.8-0.3,1.8-1v-12.3l8.1,12.5c0.5,0.7,1.1,0.8,2,0.8h1.2c1.3,0,1.8-0.3,1.8-1V447
	c0-0.6-0.6-1-1.8-1h-0.9c-1.3,0-1.8,0.3-1.8,1v12.2l-0.8-1.2l-7.2-11.1c-0.5-0.7-1.1-0.8-2-0.8h-1.3c-1.3,0-1.8,0.3-1.8,1v19.4
	C232,467.1,232.5,467.4,233.8,467.4z"/>
<path class="st1" d="M273.4,467.6c2.2,0,7.1-0.3,7.1-2.4v-8.5c0-0.9-0.4-1.2-1.2-1.2h-6.2c-0.6,0-0.9,0.5-0.9,1.5v1
	c0,1.1,0.3,1.5,0.9,1.5h2.7v3.9c-0.8,0.2-1.5,0.2-2.4,0.2c-3.5,0-5.2-2.4-5.2-6.9s1.7-6.8,5.3-6.8c2.9,0,4.3,1,4.6,1
	c0.8,0,2-2,2-2.9c0-1.3-3.8-2.1-6.5-2.1c-6.7,0-10.1,3.6-10.1,10.8C263.4,464.2,266.6,467.6,273.4,467.6z"/>
<path class="st1" d="M287.3,467.4h11.1c0.6,0,0.9-0.5,0.9-1.5V465c0-1.1-0.3-1.5-0.9-1.5h-7.7v-4.9h6.8c0.6,0,0.9-0.5,0.9-1.5V456
	c0-1.1-0.3-1.5-0.9-1.5h-6.8v-4.4h7.7c0.6,0,0.9-0.5,0.9-1.5v-0.9c0-1.1-0.3-1.5-0.9-1.5h-11.1c-0.9,0-1.2,0.4-1.2,1.2v18.8
	C286.1,467,286.4,467.4,287.3,467.4z"/>
<path class="st1" d="M307,446.1h-1c-1.3,0-1.8,0.3-1.8,1v19.1c0,0.9,0.4,1.2,1.2,1.2h10.2c0.6,0,0.9-0.5,0.9-1.5V465
	c0-1.1-0.3-1.5-0.9-1.5h-6.8V447C308.9,446.4,308.3,446.1,307,446.1z"/>
<path class="st1" d="M321.6,446.1c-0.9,0-1.2,0.4-1.2,1.2v18.8c0,0.9,0.4,1.2,1.2,1.2h6.8c6.3,0,9.7-3.8,9.7-10.6
	c0-6.9-3.5-10.6-9.7-10.6H321.6z M333.3,456.8c0,4.3-1.7,6.6-4.9,6.6h-3.3v-13.3h3.3C331.7,450.1,333.3,452.4,333.3,456.8z"/>
<path class="st1" d="M355.4,450.1c0.6,0,0.9-0.5,0.9-1.5v-0.9c0-1.1-0.3-1.5-0.9-1.5h-11.1c-0.9,0-1.2,0.4-1.2,1.2v18.8
	c0,0.9,0.4,1.2,1.2,1.2h11.1c0.6,0,0.9-0.5,0.9-1.5V465c0-1.1-0.3-1.5-0.9-1.5h-7.7v-4.9h6.8c0.6,0,0.9-0.5,0.9-1.5V456
	c0-1.1-0.3-1.5-0.9-1.5h-6.8v-4.4H355.4z"/>
<path class="st1" d="M375.8,451.8c0-3.6-2.3-5.7-7.6-5.7h-5.9c-0.9,0-1.2,0.4-1.2,1.2v19.1c0,0.6,0.6,1,1.8,1h1c1.3,0,1.8-0.3,1.8-1
	V459h1.2c2,0,2.5,0.6,3.1,1.8l2.4,5.9c0.2,0.5,0.9,0.6,1.8,0.6h1.3c1.2,0,1.8-0.2,1.8-0.6c0-0.1-0.1-0.3-0.2-0.6l-2.7-6.7
	c-0.5-1.3-1.4-2.5-2.2-2.8v-0.1C374.4,455.9,375.8,454.2,375.8,451.8z M368.7,455h-2.9v-4.9h2.7c1.6,0,2.5,0.9,2.5,2.3
	C371.1,453.9,370,455,368.7,455z"/>
<g>
	<path d="M118.4,220.3c0,0.1-0.1,0.2-0.2,0.3c-0.1,0.1-0.2,0.2-0.4,0.2c-1.3,0.4-2.7,0.6-4,0.7c-1.3,0.1-2.7,0.1-4-0.1
		c-1.3-0.2-2.7-0.5-4-1c-1.4-0.5-2.6-1.1-3.8-1.8c-1.2-0.7-2.3-1.5-3.2-2.4s-1.9-1.9-2.6-3c-0.1-0.1-0.1-0.3-0.2-0.4
		c0-0.1,0-0.2,0-0.3c0.1-0.2,0.2-0.3,0.3-0.5c0.2-0.2,0.3-0.3,0.5-0.4c0.2-0.1,0.4-0.1,0.6-0.1c0.1,0,0.1,0.1,0.2,0.1
		c0.1,0,0.1,0.1,0.2,0.2c0.9,1,1.8,1.8,2.7,2.6c0.9,0.7,1.9,1.4,2.9,1.9c1,0.6,2.1,1,3.3,1.5c1.2,0.4,2.4,0.7,3.6,0.9
		s2.3,0.3,3.5,0.3c1.2,0,2.4-0.1,3.6-0.3c0.1,0,0.2,0,0.3,0c0.1,0,0.2,0,0.2,0.1c0.2,0.1,0.3,0.2,0.4,0.4c0.1,0.2,0.2,0.4,0.2,0.7
		C118.5,220,118.5,220.2,118.4,220.3z"/>
	<path d="M117.1,210.5c-0.3,0.7-0.6,1.4-1,1.9c-0.4,0.5-0.7,1-1,1.3c-0.3,0.3-0.7,0.6-0.9,0.8c-0.2,0.2-0.4,0.3-0.6,0.4
		c-0.2,0.1-0.4,0.1-0.5,0c-0.2-0.1-0.4-0.2-0.6-0.3c-0.2-0.1-0.4-0.3-0.6-0.5c-0.2-0.2-0.3-0.4-0.4-0.5c-0.1-0.2-0.1-0.3-0.1-0.4
		c0.1-0.1,0.3-0.4,0.6-0.7c0.3-0.3,0.7-0.7,1.1-1.2c0.4-0.5,0.7-1,1-1.6c0.2-0.4,0.3-0.8,0.3-1.1c0-0.3-0.1-0.6-0.2-0.8
		s-0.4-0.4-0.8-0.6c-0.4-0.1-0.7-0.2-1-0.1c-0.3,0.1-0.6,0.3-1,0.5c-0.3,0.2-0.6,0.5-1,0.9c-0.3,0.3-0.7,0.7-1,1
		c-0.3,0.3-0.7,0.6-1.1,0.9c-0.4,0.3-0.8,0.5-1.3,0.6c-0.5,0.1-1,0.2-1.5,0.2c-0.6,0-1.2-0.2-1.8-0.5c-0.8-0.3-1.4-0.8-1.9-1.3
		c-0.4-0.5-0.7-1.1-0.9-1.8c-0.1-0.6-0.2-1.3-0.1-2s0.3-1.4,0.5-2c0.2-0.5,0.4-0.9,0.7-1.3c0.3-0.4,0.5-0.8,0.8-1.1
		c0.3-0.3,0.5-0.6,0.8-0.7c0.2-0.1,0.3-0.2,0.5-0.3s0.3-0.1,0.4,0c0.1,0.1,0.3,0.2,0.5,0.3c0.2,0.1,0.4,0.3,0.6,0.5s0.3,0.3,0.4,0.5
		c0.1,0.2,0.1,0.3,0.1,0.5c-0.1,0.2-0.2,0.4-0.5,0.6c-0.2,0.2-0.5,0.5-0.8,0.9c-0.3,0.3-0.5,0.8-0.7,1.3c-0.2,0.4-0.3,0.8-0.3,1.1
		c0,0.3,0.1,0.6,0.2,0.8c0.1,0.2,0.4,0.4,0.7,0.5c0.4,0.2,0.7,0.2,1.1,0c0.3-0.1,0.7-0.3,1-0.6c0.3-0.3,0.7-0.6,1-1
		c0.4-0.4,0.8-0.8,1.2-1.1s0.9-0.7,1.4-0.9s1.1-0.4,1.7-0.4s1.3,0.1,2.1,0.4c0.9,0.4,1.6,0.8,2,1.3c0.5,0.5,0.8,1.1,1,1.8
		c0.2,0.6,0.2,1.3,0.1,2C117.5,209.3,117.3,209.9,117.1,210.5z"/>
	<path d="M122.3,198.6c-0.2,0.4-0.4,0.7-0.7,0.9c-0.2,0.2-0.4,0.2-0.7,0.1l-11.6-5.8l-1.7,3.4c-0.2,0.4-0.7,0.5-1.4,0.1l-0.7-0.3
		c-0.7-0.4-1-0.7-0.8-1.2l5.1-10.2c0.2-0.4,0.7-0.5,1.4-0.1l0.7,0.3c0.7,0.4,1,0.7,0.8,1.2l-1.7,3.4l11.6,5.8
		c0.2,0.1,0.4,0.3,0.4,0.6c0,0.3-0.1,0.6-0.3,1.1L122.3,198.6z"/>
	<path d="M127.1,189.5c-0.3,0.5-0.7,0.6-1.3,0.3l-12.8-7.6c-0.6-0.3-0.7-0.7-0.4-1.3l4.4-7.4c0.2-0.4,0.7-0.4,1.4,0l0.6,0.4
		c0.7,0.4,0.9,0.8,0.7,1.2l-2.9,4.9l3,1.8l2.6-4.4c0.2-0.4,0.7-0.4,1.4,0l0.6,0.4c0.7,0.4,0.9,0.8,0.7,1.2l-2.6,4.4l3.3,2l2.9-5
		c0.2-0.4,0.7-0.4,1.4,0l0.6,0.4c0.7,0.4,0.9,0.8,0.7,1.2L127.1,189.5z"/>
	<path d="M134.6,177.1c-0.3,0.4-0.6,0.7-0.8,0.8c-0.2,0.1-0.5,0.1-0.7-0.1l-12.4-9c-0.2-0.1-0.3-0.4-0.3-0.6s0.2-0.6,0.5-1l0.7-1
		c0.2-0.3,0.4-0.5,0.7-0.7c0.2-0.2,0.5-0.2,0.9-0.2l7.4,0.9c0.2,0,0.5,0,0.8,0.1c0.3,0,0.5,0.1,0.7,0.1c-0.1-0.2-0.2-0.4-0.3-0.6
		c-0.1-0.2-0.2-0.5-0.3-0.6l-3.1-6.8c-0.1-0.3-0.2-0.6-0.1-0.9c0.1-0.3,0.2-0.5,0.4-0.8l0.7-1c0.3-0.4,0.6-0.7,0.8-0.8
		c0.2-0.1,0.5-0.1,0.7,0.1l12.4,9c0.2,0.1,0.3,0.4,0.3,0.6c0,0.3-0.2,0.6-0.5,1l-0.3,0.5c-0.3,0.4-0.6,0.7-0.8,0.8
		c-0.2,0.1-0.5,0.1-0.7-0.1l-7.1-5.1c-0.2-0.1-0.3-0.2-0.5-0.4c-0.2-0.1-0.3-0.2-0.5-0.3l-0.1,0.1c0.1,0.2,0.2,0.3,0.2,0.5
		s0.1,0.3,0.2,0.5l2.5,5.3c0.1,0.2,0.1,0.5,0.1,0.7c-0.1,0.2-0.2,0.5-0.4,0.8l-0.2,0.3c-0.2,0.3-0.5,0.6-0.7,0.7
		c-0.2,0.1-0.4,0.2-0.7,0.1l-5.8-0.7c-0.2,0-0.4,0-0.5-0.1c-0.2,0-0.4,0-0.5-0.1l0,0.1c0.2,0.1,0.3,0.2,0.5,0.3
		c0.2,0.1,0.3,0.2,0.5,0.4l7.1,5.1c0.2,0.2,0.3,0.4,0.3,0.6c0,0.3-0.2,0.6-0.5,1L134.6,177.1z"/>
	<path d="M132.3,149.1c0.1-0.1,0.2-0.2,0.3-0.2c0.1,0,0.3-0.1,0.4,0c1.4,0.1,2.7,0.4,4,0.8c1.3,0.4,2.5,0.9,3.7,1.6
		c1.2,0.7,2.3,1.4,3.4,2.3c1.1,0.9,2.1,1.9,2.9,3c0.9,1.1,1.6,2.2,2.2,3.4c0.6,1.2,1,2.5,1.4,3.8c0,0.2,0,0.3,0,0.4
		c0,0.1-0.1,0.2-0.2,0.3c-0.1,0.1-0.3,0.2-0.5,0.3c-0.2,0.1-0.4,0.2-0.6,0.2c-0.2,0-0.4,0-0.5-0.1c-0.1-0.1-0.1-0.1-0.2-0.2
		c-0.1-0.1-0.1-0.1-0.1-0.2c-0.5-1.2-1-2.4-1.6-3.4c-0.6-1-1.3-2-2-2.9c-0.8-0.9-1.6-1.7-2.6-2.5c-1-0.8-2-1.6-3-2.2
		c-1-0.6-2.1-1.1-3.2-1.5c-1.1-0.4-2.3-0.7-3.5-1c-0.1,0-0.2,0-0.3-0.1c-0.1,0-0.1-0.1-0.2-0.1c-0.1-0.1-0.2-0.3-0.2-0.5
		c0-0.2,0-0.4,0.1-0.7C132.1,149.4,132.2,149.2,132.3,149.1z"/>
	<path d="M151.7,155.2c-0.3,0.4-0.6,0.6-0.9,0.7c-0.2,0.1-0.4,0.1-0.5,0c0,0-0.1-0.1-0.1-0.2c0-0.1-0.1-0.1-0.1-0.2l-7.5-14.5
		c-0.1-0.2-0.1-0.4,0-0.6c0.1-0.2,0.3-0.5,0.6-0.8l0.9-0.9c0.3-0.3,0.5-0.5,0.7-0.6c0.2-0.1,0.4-0.1,0.6,0l14.8,6.9
		c0.1,0,0.1,0.1,0.2,0.1s0.1,0.1,0.2,0.1c0.1,0.1,0.1,0.3,0.1,0.5c-0.1,0.2-0.2,0.5-0.5,0.8l-0.7,0.8c-0.2,0.3-0.5,0.4-0.7,0.6
		c-0.2,0.1-0.4,0.1-0.6,0.1l-9.8-4.8c-0.2-0.1-0.5-0.2-0.7-0.4c-0.2-0.1-0.4-0.3-0.7-0.4l-0.1,0.1c0.2,0.2,0.3,0.4,0.4,0.6
		c0.1,0.2,0.3,0.4,0.4,0.7l5.1,9.6c0.1,0.2,0.1,0.3,0,0.5c-0.1,0.2-0.2,0.4-0.4,0.6L151.7,155.2z M150.4,151.4l-2.1-2l5.7-5.9l2.1,2
		L150.4,151.4z"/>
	<path d="M168.3,139.2c-2,1.8-4,2.6-5.9,2.4c-1.9-0.2-3.8-1.4-5.8-3.6c-1.9-2.1-2.8-4.2-2.7-6.1s1.1-3.8,3.1-5.6
		c0.4-0.3,0.8-0.7,1.3-1c0.5-0.3,0.9-0.6,1.4-0.8s0.9-0.4,1.2-0.4c0.2,0,0.4-0.1,0.6,0c0.2,0,0.3,0.1,0.4,0.2
		c0.1,0.1,0.2,0.3,0.3,0.5c0.1,0.2,0.2,0.5,0.3,0.7c0.1,0.3,0.1,0.5,0.1,0.7c0,0.2-0.1,0.4-0.2,0.5c-0.1,0.1-0.4,0.3-0.7,0.4
		c-0.3,0.1-0.7,0.3-1.2,0.6s-0.9,0.6-1.4,1.1c-0.7,0.6-1.2,1.3-1.4,2c-0.2,0.7-0.1,1.5,0.2,2.3c0.3,0.8,0.9,1.6,1.7,2.5
		c0.8,0.9,1.6,1.5,2.3,2c0.8,0.4,1.5,0.6,2.2,0.5c0.7-0.1,1.4-0.4,2.1-1c0.4-0.4,0.8-0.8,1.1-1.1c0.3-0.4,0.5-0.7,0.7-1.1
		c0.2-0.3,0.3-0.6,0.4-0.8c0.1-0.2,0.2-0.4,0.3-0.5c0.1-0.1,0.3-0.2,0.6-0.1c0.2,0,0.5,0.1,0.7,0.2c0.2,0.1,0.4,0.2,0.6,0.4
		c0.2,0.1,0.3,0.2,0.4,0.3c0.2,0.2,0.3,0.4,0.3,0.6c0,0.2-0.1,0.5-0.2,0.9c-0.1,0.4-0.4,0.8-0.7,1.3c-0.3,0.4-0.6,0.9-1,1.3
		C169,138.6,168.7,138.9,168.3,139.2z"/>
	<path d="M178.3,130.9c-0.4,0.3-0.7,0.5-1,0.5c-0.3,0-0.5,0-0.6-0.2l-7.8-10.3l-3,2.3c-0.4,0.3-0.8,0.1-1.3-0.5l-0.4-0.6
		c-0.5-0.6-0.5-1.1-0.1-1.4l9.1-6.8c0.4-0.3,0.8-0.1,1.3,0.5l0.4,0.6c0.5,0.6,0.5,1.1,0.1,1.4l-3,2.3l7.8,10.3
		c0.2,0.2,0.2,0.4,0.1,0.7c-0.1,0.2-0.4,0.5-0.8,0.8L178.3,130.9z"/>
	<path d="M187.1,124.5c-0.4,0.3-0.8,0.4-1,0.4c-0.3,0-0.5-0.1-0.6-0.3l-8.2-12.7c-0.3-0.5-0.3-1,0.2-1.3l4-2.6
		c1.8-1.1,3.3-1.6,4.6-1.4c1.3,0.2,2.3,0.9,3.1,2.2c0.4,0.6,0.6,1.1,0.7,1.7c0.1,0.6,0.1,1.1,0,1.6c-0.1,0.5-0.4,1-0.8,1.5l0.1,0.1
		c0.3-0.1,0.6,0,1,0.1c0.4,0.1,0.8,0.3,1.2,0.6l4.3,3c0.2,0.1,0.3,0.2,0.4,0.3c0.1,0.1,0.2,0.2,0.2,0.3c0.1,0.2,0.1,0.3,0,0.5
		s-0.4,0.4-0.9,0.7l-0.8,0.5c-0.3,0.2-0.6,0.3-0.8,0.4c-0.3,0.1-0.5,0-0.8-0.2l-3.9-2.7c-0.3-0.2-0.6-0.4-0.8-0.4s-0.6-0.1-0.9,0
		c-0.3,0.1-0.7,0.3-1.1,0.5l-0.8,0.5l3.1,4.8c0.1,0.2,0.1,0.4,0,0.7c-0.1,0.2-0.4,0.5-0.8,0.8L187.1,124.5z M183.9,115.4l1.8-1.1
		c0.6-0.4,1-0.8,1.1-1.3s-0.1-1-0.5-1.6c-0.4-0.6-0.8-1-1.3-1.1c-0.5-0.1-1,0-1.6,0.4l-1.8,1.1L183.9,115.4z"/>
	<path d="M200.4,116.4c-0.4,0.2-0.8,0.4-1.1,0.4c-0.3,0-0.5-0.1-0.6-0.3l-7.5-13.4c-0.1-0.2-0.1-0.5,0-0.7c0.1-0.2,0.4-0.5,0.9-0.7
		l0.7-0.4c0.4-0.2,0.8-0.4,1.1-0.4c0.3,0,0.5,0.1,0.6,0.3l7.5,13.4c0.1,0.2,0.1,0.4,0,0.7c-0.1,0.2-0.4,0.5-0.9,0.7L200.4,116.4z"/>
	<path d="M212.6,110.3c-2.4,1.2-4.5,1.4-6.3,0.7s-3.3-2.4-4.6-5.1c-1.2-2.6-1.6-4.8-1-6.7s2.1-3.4,4.5-4.5c0.5-0.2,1-0.4,1.5-0.6
		c0.5-0.2,1-0.3,1.6-0.4c0.5-0.1,0.9-0.1,1.3-0.1c0.2,0,0.4,0.1,0.6,0.1c0.2,0.1,0.3,0.2,0.3,0.3c0.1,0.1,0.1,0.3,0.2,0.6
		s0.1,0.5,0.1,0.8c0,0.3,0,0.5-0.1,0.7s-0.2,0.3-0.3,0.4c-0.2,0.1-0.4,0.1-0.8,0.2c-0.4,0-0.8,0.1-1.3,0.2c-0.5,0.1-1.1,0.3-1.7,0.6
		c-0.9,0.4-1.5,0.9-1.8,1.6c-0.4,0.6-0.5,1.4-0.5,2.2c0.1,0.8,0.4,1.8,0.9,2.9c0.5,1.1,1.1,1.9,1.7,2.5c0.6,0.6,1.3,1,2,1.1
		c0.7,0.1,1.5,0,2.3-0.4c0.5-0.2,1-0.5,1.3-0.8c0.4-0.3,0.7-0.6,1-0.8c0.3-0.3,0.5-0.5,0.7-0.7c0.2-0.2,0.3-0.3,0.4-0.4
		c0.2-0.1,0.4-0.1,0.6,0c0.2,0.1,0.4,0.2,0.6,0.4s0.4,0.4,0.5,0.5c0.1,0.2,0.2,0.3,0.3,0.4c0.1,0.2,0.1,0.5,0.1,0.6
		c-0.1,0.2-0.2,0.4-0.5,0.8c-0.3,0.4-0.6,0.7-1,1.1c-0.4,0.3-0.8,0.7-1.3,1C213.5,109.8,213,110.1,212.6,110.3z"/>
	<path d="M221,106.3c-0.6,0.2-0.9,0-1.2-0.6l-5.4-13.9c-0.2-0.6-0.1-1,0.5-1.2l8-3.1c0.4-0.2,0.8,0.1,1.1,0.9l0.3,0.7
		c0.3,0.7,0.2,1.2-0.2,1.4l-5.3,2.1l1.3,3.2l4.8-1.8c0.4-0.2,0.8,0.1,1.1,0.9l0.3,0.7c0.3,0.7,0.2,1.2-0.2,1.4l-4.8,1.8l1.4,3.6
		l5.4-2.1c0.4-0.2,0.8,0.1,1.1,0.9l0.3,0.7c0.3,0.7,0.2,1.2-0.2,1.4L221,106.3z"/>
	<path d="M233.6,104.8c-0.2,0.1-0.4,0.1-0.7,0.1c-0.3,0-0.4-0.1-0.5-0.3c0-0.1,0-0.2,0-0.3s0-0.2,0-0.4c0-0.3,0-0.6,0-1
		c0-0.4,0-0.9-0.1-1.5c-0.1-0.6-0.3-1.3-0.5-2.1c-0.1-0.3-0.1-0.6,0.1-0.8c0.2-0.2,0.5-0.4,1-0.6l0.5-0.1c0.5-0.2,0.9-0.2,1.1-0.1
		s0.4,0.2,0.5,0.5c0.2,0.6,0.3,1.3,0.3,2s-0.1,1.4-0.3,2.1s-0.4,1.2-0.6,1.7S233.9,104.8,233.6,104.8z"/>
	<path d="M249.9,97.1c-0.5,0.1-0.9,0.1-1.1,0.1c-0.3-0.1-0.4-0.2-0.5-0.5l-2.9-12.6l-3.7,0.9c-0.5,0.1-0.8-0.2-1-1l-0.2-0.7
		c-0.2-0.8,0-1.2,0.4-1.3l11.1-2.6c0.5-0.1,0.8,0.2,1,1l0.2,0.7c0.2,0.8,0,1.2-0.4,1.3l-3.7,0.9l2.9,12.6c0.1,0.2,0,0.5-0.2,0.6
		c-0.2,0.2-0.5,0.3-1,0.4L249.9,97.1z"/>
	<path d="M260.5,94.8c-0.5,0.1-0.9,0.1-1.1,0c-0.2-0.1-0.4-0.3-0.4-0.5l-2.2-15.2c0-0.3,0-0.5,0.3-0.6c0.2-0.2,0.6-0.3,1.1-0.4
		l0.8-0.1c0.5-0.1,0.9-0.1,1.1,0c0.2,0.1,0.4,0.3,0.4,0.5l0.8,5.8l7-1l-0.8-5.8c0-0.3,0-0.5,0.3-0.6c0.2-0.2,0.6-0.3,1.1-0.4
		l0.8-0.1c0.5-0.1,0.9-0.1,1.1,0c0.2,0.1,0.4,0.3,0.4,0.5l2.2,15.2c0,0.3,0,0.5-0.2,0.6c-0.2,0.2-0.6,0.3-1.1,0.4l-0.8,0.1
		c-0.5,0.1-0.9,0.1-1.1,0c-0.2-0.1-0.4-0.3-0.4-0.5l-0.9-6.2l-7,1l0.9,6.2c0,0.3,0,0.5-0.2,0.6c-0.2,0.2-0.6,0.3-1.1,0.4L260.5,94.8
		z"/>
	<path d="M278.3,92.6c-0.6,0-0.9-0.3-0.9-0.9l-0.9-14.9c0-0.6,0.2-1,0.8-1l8.6-0.5c0.5,0,0.7,0.4,0.8,1.2l0,0.7
		c0,0.8-0.2,1.2-0.6,1.2l-5.7,0.3l0.2,3.5l5.1-0.3c0.5,0,0.7,0.4,0.8,1.2l0,0.7c0,0.8-0.2,1.2-0.6,1.2l-5.1,0.3l0.2,3.9l5.7-0.3
		c0.5,0,0.7,0.4,0.8,1.2l0,0.7c0,0.8-0.2,1.2-0.6,1.2L278.3,92.6z"/>
	<path d="M291.3,91.9c-0.5,0-0.9-0.1-1.1-0.2c-0.2-0.1-0.4-0.2-0.4-0.4c0-0.1,0-0.1,0-0.2c0-0.1,0-0.1,0.1-0.2l5.5-15.3
		c0.1-0.2,0.2-0.3,0.4-0.4c0.2-0.1,0.5-0.1,0.9-0.1l1.2,0c0.4,0,0.7,0.1,0.9,0.1s0.4,0.2,0.4,0.4l5,15.5c0,0.1,0,0.2,0.1,0.2
		s0,0.1,0,0.2c0,0.2-0.1,0.3-0.3,0.4s-0.5,0.1-0.9,0.1l-1.1,0c-0.4,0-0.6,0-0.9-0.1c-0.2-0.1-0.4-0.2-0.4-0.4l-3.2-10.4
		c-0.1-0.3-0.1-0.5-0.2-0.8c-0.1-0.3-0.1-0.5-0.1-0.8l-0.1,0c-0.1,0.3-0.1,0.5-0.2,0.8c-0.1,0.3-0.1,0.5-0.2,0.8l-3.6,10.3
		c-0.1,0.2-0.2,0.3-0.4,0.4s-0.4,0.1-0.7,0.1L291.3,91.9z M293.1,88.4l0-2.9l8.2,0.1l0,2.9L293.1,88.4z"/>
	<path d="M310.1,92.7c-0.5,0-0.9-0.1-1.1-0.3c-0.2-0.1-0.3-0.3-0.3-0.6l1.1-12.9l-3.8-0.3c-0.5,0-0.7-0.5-0.6-1.3l0.1-0.7
		c0.1-0.8,0.3-1.2,0.8-1.1l11.3,1c0.5,0,0.7,0.5,0.6,1.3l-0.1,0.7c-0.1,0.8-0.3,1.2-0.8,1.1l-3.8-0.3l-1.1,12.9
		c0,0.3-0.2,0.4-0.4,0.5c-0.2,0.1-0.6,0.1-1.1,0.1L310.1,92.7z"/>
	<path d="M320.5,93.7c-0.6-0.1-0.8-0.5-0.7-1.1l2.4-14.7c0.1-0.6,0.4-0.9,1-0.8l8.5,1.4c0.5,0.1,0.6,0.5,0.5,1.3l-0.1,0.7
		c-0.1,0.8-0.4,1.1-0.9,1.1l-5.7-0.9l-0.6,3.4l5,0.8c0.5,0.1,0.6,0.5,0.5,1.3l-0.1,0.7c-0.1,0.8-0.4,1.1-0.9,1.1l-5-0.8l-0.6,3.8
		l5.7,0.9c0.5,0.1,0.6,0.5,0.5,1.3l-0.1,0.7c-0.1,0.8-0.4,1.1-0.9,1.1L320.5,93.7z"/>
	<path d="M334.8,96.3c-0.5-0.1-0.8-0.3-1-0.5c-0.2-0.2-0.3-0.4-0.2-0.7l3.5-14.7c0.2-0.6,0.5-0.9,1.1-0.7l4.6,1.1
		c2.1,0.5,3.5,1.3,4.2,2.3s0.9,2.3,0.6,3.8c-0.2,0.7-0.4,1.2-0.7,1.7c-0.3,0.5-0.7,0.8-1.2,1.1c-0.5,0.3-1,0.4-1.6,0.5l0,0.1
		c0.2,0.2,0.5,0.4,0.7,0.8c0.2,0.4,0.3,0.8,0.4,1.2l0.8,5.2c0,0.2,0.1,0.4,0.1,0.5c0,0.1,0,0.3,0,0.4c0,0.2-0.2,0.3-0.4,0.3
		c-0.2,0-0.6,0-1.1-0.1l-1-0.2c-0.3-0.1-0.6-0.2-0.8-0.3c-0.2-0.1-0.4-0.4-0.4-0.7l-0.7-4.7c0-0.4-0.1-0.7-0.3-0.9
		c-0.1-0.2-0.3-0.5-0.6-0.6c-0.3-0.2-0.7-0.3-1.2-0.4l-0.9-0.2l-1.3,5.6c-0.1,0.2-0.2,0.4-0.5,0.5c-0.2,0.1-0.6,0.1-1.1-0.1
		L334.8,96.3z M339.2,87.7l2.1,0.5c0.7,0.2,1.3,0.1,1.7-0.1c0.4-0.2,0.7-0.7,0.9-1.5c0.2-0.7,0.1-1.3-0.1-1.7
		c-0.2-0.4-0.7-0.7-1.4-0.9l-2.1-0.5L339.2,87.7z"/>
	<path d="M349.8,100.1c-0.5-0.2-0.8-0.3-1-0.5c-0.2-0.2-0.2-0.4-0.1-0.7l5-14.5c0.1-0.2,0.3-0.4,0.5-0.4c0.3-0.1,0.6,0,1.1,0.2
		l1.2,0.4c0.3,0.1,0.6,0.3,0.8,0.5c0.2,0.2,0.4,0.4,0.4,0.8l1.3,7.3c0.1,0.2,0.1,0.5,0.1,0.7c0,0.3,0.1,0.5,0.1,0.7
		c0.1-0.1,0.3-0.3,0.5-0.5c0.2-0.2,0.4-0.4,0.5-0.5l5.6-4.9c0.3-0.2,0.5-0.4,0.8-0.4s0.6,0,0.9,0.1l1.2,0.4c0.5,0.2,0.8,0.4,1,0.6
		c0.2,0.2,0.2,0.4,0.1,0.7l-5,14.5c-0.1,0.2-0.3,0.4-0.5,0.4c-0.3,0-0.6,0-1.1-0.2l-0.5-0.2c-0.5-0.2-0.8-0.3-1-0.5
		s-0.2-0.4-0.1-0.7l2.9-8.3c0.1-0.2,0.1-0.4,0.2-0.6c0.1-0.2,0.1-0.4,0.2-0.5l-0.1-0.1c-0.1,0.1-0.3,0.2-0.4,0.4
		c-0.1,0.1-0.3,0.2-0.4,0.4l-4.3,3.9c-0.2,0.2-0.4,0.3-0.7,0.3c-0.2,0-0.6-0.1-0.9-0.2l-0.3-0.1c-0.4-0.1-0.7-0.3-0.9-0.4
		c-0.2-0.2-0.3-0.4-0.4-0.6l-1-5.8c0-0.2-0.1-0.4-0.1-0.5c0-0.2-0.1-0.4-0.1-0.5l-0.1,0c-0.1,0.2-0.1,0.4-0.2,0.5
		c-0.1,0.2-0.1,0.4-0.2,0.6l-2.9,8.3c-0.1,0.2-0.3,0.4-0.5,0.4c-0.3,0.1-0.6,0-1.1-0.2L349.8,100.1z"/>
	<path d="M368.1,106.8c-0.5-0.2-0.8-0.4-0.9-0.6c-0.2-0.2-0.2-0.4-0.2-0.5c0-0.1,0.1-0.1,0.1-0.2c0.1-0.1,0.1-0.1,0.1-0.2l11.2-11.8
		c0.1-0.1,0.3-0.2,0.6-0.2c0.2,0,0.5,0.1,0.9,0.3l1.1,0.5c0.4,0.2,0.6,0.3,0.8,0.5s0.2,0.3,0.2,0.5l-1.6,16.2c0,0.1,0,0.2,0,0.2
		s0,0.1-0.1,0.2c-0.1,0.1-0.2,0.2-0.4,0.2c-0.2,0-0.5-0.1-0.9-0.2l-1-0.4c-0.3-0.1-0.6-0.3-0.8-0.5c-0.2-0.2-0.3-0.3-0.3-0.5
		l1.3-10.8c0-0.3,0.1-0.5,0.1-0.8c0.1-0.3,0.1-0.5,0.2-0.8l-0.1,0c-0.2,0.2-0.3,0.4-0.5,0.6s-0.3,0.4-0.5,0.6l-7.4,8
		c-0.1,0.1-0.3,0.2-0.5,0.2s-0.4-0.1-0.7-0.2L368.1,106.8z M371.2,104.3l1.2-2.6l7.5,3.4l-1.2,2.6L371.2,104.3z"/>
	<path d="M383.5,114.2c-0.4-0.2-0.7-0.5-0.9-0.7c-0.1-0.2-0.1-0.5,0-0.7l7.4-13.4c0.1-0.2,0.3-0.3,0.6-0.3c0.3,0,0.6,0.1,1.1,0.4
		l0.7,0.4c0.4,0.2,0.7,0.5,0.9,0.7c0.1,0.2,0.1,0.5,0,0.7l-3.1,5.6l0.1,0l6.8-3.8c0.2-0.1,0.5-0.2,0.8-0.1c0.3,0,0.6,0.2,1.1,0.5
		l0.6,0.3c0.5,0.3,0.8,0.5,1,0.7c0.2,0.2,0.2,0.3,0.1,0.5c0,0.1-0.1,0.1-0.2,0.2c-0.1,0.1-0.2,0.1-0.3,0.2l-8.6,4.6l1-1.7l0.8,10.1
		c0,0.2,0,0.4,0,0.5c0,0.1-0.1,0.2-0.1,0.3c-0.1,0.2-0.3,0.2-0.5,0.2s-0.6-0.2-1-0.5l-0.7-0.4c-0.5-0.3-0.8-0.5-1-0.7
		c-0.2-0.2-0.3-0.4-0.3-0.7l-0.6-7.9l-0.1,0l-3.2,5.7c-0.1,0.2-0.3,0.3-0.6,0.4s-0.6-0.1-1.1-0.4L383.5,114.2z"/>
	<path d="M395.8,121.2c-0.5-0.3-0.6-0.8-0.2-1.3l8.2-12.4c0.4-0.5,0.8-0.6,1.3-0.3l7.2,4.7c0.4,0.3,0.4,0.7-0.1,1.4l-0.4,0.6
		c-0.4,0.7-0.9,0.9-1.3,0.6l-4.8-3.2l-1.9,2.9l4.3,2.8c0.4,0.3,0.4,0.7-0.1,1.4l-0.4,0.6c-0.4,0.7-0.9,0.9-1.2,0.6l-4.3-2.8
		l-2.1,3.2l4.8,3.2c0.4,0.3,0.4,0.7-0.1,1.4l-0.4,0.6c-0.4,0.7-0.9,0.9-1.3,0.6L395.8,121.2z"/>
	<path d="M407.8,129.5c-0.4-0.3-0.6-0.6-0.7-0.8c-0.1-0.2-0.1-0.5,0.1-0.7l9.3-11.9c0.4-0.5,0.8-0.6,1.3-0.2l3.8,2.9
		c1.7,1.3,2.6,2.6,2.9,3.8c0.3,1.3-0.1,2.5-1,3.7c-0.4,0.5-0.9,1-1.4,1.3c-0.5,0.3-1,0.5-1.5,0.5s-1.1,0-1.7-0.2l-0.1,0.1
		c0.2,0.2,0.2,0.6,0.3,1c0,0.4,0,0.9-0.2,1.3l-1.4,5c0,0.2-0.1,0.4-0.2,0.5c-0.1,0.1-0.1,0.2-0.2,0.3c-0.1,0.2-0.3,0.2-0.5,0.1
		c-0.2-0.1-0.5-0.3-0.9-0.6l-0.8-0.6c-0.3-0.2-0.5-0.4-0.6-0.7c-0.1-0.2-0.2-0.5-0.1-0.8l1.3-4.6c0.1-0.3,0.1-0.7,0.1-0.9
		c0-0.3-0.1-0.6-0.3-0.8c-0.2-0.3-0.5-0.6-0.9-0.9l-0.7-0.6l-3.5,4.5c-0.2,0.2-0.4,0.3-0.6,0.3c-0.3,0-0.6-0.2-1-0.5L407.8,129.5z
		 M415.4,123.4l1.7,1.3c0.6,0.5,1.1,0.6,1.6,0.6c0.5-0.1,0.9-0.4,1.4-1c0.5-0.6,0.7-1.1,0.6-1.6c-0.1-0.5-0.4-0.9-1-1.4L418,120
		L415.4,123.4z"/>
	<path d="M424.6,143.4c-0.4-0.4-0.4-0.8,0-1.3l10.4-10.7c0.4-0.5,0.9-0.5,1.3-0.1l6.1,6c0.3,0.3,0.2,0.8-0.3,1.4l-0.5,0.5
		c-0.6,0.6-1,0.7-1.4,0.4l-4.1-4l-2.4,2.5l3.7,3.6c0.3,0.3,0.2,0.8-0.3,1.3l-0.5,0.5c-0.6,0.6-1,0.7-1.3,0.4l-3.7-3.6l-2.7,2.8
		l4.1,4c0.3,0.3,0.2,0.8-0.3,1.4l-0.5,0.5c-0.6,0.6-1,0.7-1.4,0.4L424.6,143.4z"/>
	<path d="M434.8,153.7c-0.3-0.4-0.5-0.7-0.6-1c0-0.3,0-0.5,0.2-0.6l11.6-10c0.2-0.2,0.4-0.2,0.7-0.1s0.5,0.3,0.9,0.7l0.5,0.6
		c0.2,0.2,0.3,0.4,0.4,0.6c0.1,0.2,0.2,0.4,0.2,0.6c0,0.2,0,0.4-0.1,0.7l-2.5,9.7c-0.1,0.3-0.2,0.6-0.3,0.9
		c-0.1,0.3-0.2,0.6-0.3,0.9l0.1,0.1c0.2-0.2,0.4-0.4,0.6-0.6s0.5-0.4,0.7-0.7l6.1-5.3c0.2-0.2,0.4-0.2,0.7-0.1
		c0.3,0.1,0.5,0.3,0.9,0.7l0.4,0.4c0.3,0.4,0.5,0.7,0.6,1c0,0.3,0,0.5-0.2,0.6l-11.6,10c-0.2,0.2-0.4,0.2-0.7,0.1
		c-0.2-0.1-0.5-0.3-0.9-0.7l-0.5-0.6c-0.2-0.2-0.3-0.4-0.4-0.5s-0.2-0.3-0.2-0.5c0-0.2,0-0.4,0-0.6l2.6-10.1
		c0.1-0.3,0.2-0.6,0.3-0.9s0.2-0.6,0.3-0.9l-0.1-0.1c-0.2,0.2-0.4,0.4-0.6,0.6c-0.2,0.2-0.5,0.4-0.7,0.7l-6.2,5.4
		c-0.2,0.2-0.4,0.2-0.7,0.1c-0.2-0.1-0.5-0.3-0.9-0.7L434.8,153.7z"/>
	<path d="M452.2,175.7c-0.3-0.4-0.4-0.7-0.5-1c0-0.3,0.1-0.5,0.3-0.6l10.7-7.3l-2.1-3.2c-0.3-0.4-0.1-0.8,0.6-1.3l0.6-0.4
		c0.7-0.4,1.1-0.5,1.4-0.1l6.4,9.4c0.3,0.4,0.1,0.8-0.6,1.3l-0.6,0.4c-0.7,0.4-1.1,0.5-1.4,0.1l-2.1-3.2l-10.7,7.3
		c-0.2,0.1-0.4,0.2-0.7,0c-0.2-0.1-0.5-0.4-0.8-0.8L452.2,175.7z"/>
	<path d="M458.2,184.9c-0.2-0.4-0.4-0.8-0.4-1c0-0.3,0.1-0.5,0.3-0.6l13.1-7.5c0.6-0.3,1-0.2,1.3,0.3l2.4,4.1c1,1.8,1.5,3.4,1.2,4.6
		s-1,2.3-2.3,3c-0.6,0.3-1.2,0.6-1.7,0.6s-1.1,0.1-1.6-0.1s-1-0.4-1.5-0.9l-0.1,0c0.1,0.3,0,0.6-0.1,1c-0.1,0.4-0.3,0.8-0.6,1.1
		l-3.2,4.1c-0.1,0.2-0.2,0.3-0.3,0.4c-0.1,0.1-0.2,0.2-0.3,0.2c-0.2,0.1-0.4,0.1-0.5-0.1c-0.2-0.1-0.4-0.4-0.6-0.9l-0.5-0.9
		c-0.2-0.3-0.3-0.6-0.3-0.8c0-0.3,0-0.5,0.2-0.8l2.9-3.7c0.2-0.3,0.4-0.5,0.5-0.8c0.1-0.3,0.1-0.6,0-0.9c-0.1-0.3-0.2-0.7-0.5-1.2
		l-0.5-0.8l-5,2.8c-0.2,0.1-0.4,0.1-0.7,0c-0.2-0.1-0.5-0.4-0.7-0.9L458.2,184.9z M467.5,182.2l1,1.8c0.4,0.6,0.8,1,1.2,1.1
		c0.5,0.1,1,0,1.7-0.4c0.7-0.4,1-0.8,1.2-1.2c0.1-0.5,0-1-0.4-1.6l-1-1.8L467.5,182.2z"/>
	<path d="M465,197.1c-0.2-0.4-0.3-0.8-0.3-1.1c0-0.3,0.1-0.4,0.2-0.5c0.1,0,0.1,0,0.2-0.1s0.2,0,0.2,0l16.2-1.8
		c0.2,0,0.4,0.1,0.5,0.2c0.2,0.2,0.3,0.4,0.5,0.8l0.5,1.1c0.2,0.4,0.3,0.7,0.3,0.9c0,0.2,0,0.4-0.2,0.5l-11.7,11.3
		c-0.1,0.1-0.1,0.1-0.2,0.2c-0.1,0-0.1,0.1-0.2,0.1c-0.1,0.1-0.3,0-0.5-0.1c-0.2-0.1-0.3-0.4-0.5-0.8l-0.4-1
		c-0.1-0.3-0.2-0.6-0.3-0.9c0-0.2,0-0.4,0.2-0.6l8-7.4c0.2-0.2,0.4-0.4,0.6-0.5s0.4-0.3,0.6-0.5l0-0.1c-0.3,0.1-0.5,0.1-0.8,0.2
		s-0.5,0.1-0.8,0.1l-10.8,1.3c-0.2,0-0.4,0-0.5-0.2c-0.2-0.1-0.3-0.3-0.4-0.6L465,197.1z M469,197.2l2.6-1.2l3.5,7.4l-2.6,1.2
		L469,197.2z"/>
	<path d="M472,212.8c-0.2-0.5-0.3-0.8-0.2-1.1s0.2-0.4,0.4-0.5l14.2-5.6c0.2-0.1,0.5-0.1,0.7,0.1c0.2,0.2,0.4,0.5,0.6,0.9l0.3,0.8
		c0.2,0.5,0.3,0.8,0.2,1.1c0,0.3-0.2,0.4-0.4,0.5l-14.2,5.6c-0.2,0.1-0.5,0.1-0.7-0.1c-0.2-0.2-0.4-0.5-0.6-1L472,212.8z"/>
	<path d="M474.7,220c-0.2-0.5-0.2-0.8-0.1-1.1c0.1-0.3,0.2-0.4,0.5-0.5l14.6-4.6c0.2-0.1,0.5,0,0.7,0.2c0.2,0.2,0.4,0.5,0.5,1
		l0.2,0.8c0.1,0.3,0.1,0.5,0.2,0.7c0,0.2,0,0.4,0,0.6c-0.1,0.2-0.2,0.4-0.4,0.6l-6.2,7.9c-0.2,0.2-0.4,0.5-0.6,0.7
		c-0.2,0.2-0.5,0.5-0.7,0.7l0.1,0.1c0.3-0.1,0.5-0.2,0.8-0.3c0.3-0.1,0.6-0.2,0.9-0.3l7.7-2.4c0.2-0.1,0.5,0,0.7,0.2
		c0.2,0.2,0.4,0.5,0.5,1l0.2,0.5c0.2,0.5,0.2,0.9,0.1,1.1c-0.1,0.3-0.2,0.4-0.5,0.5l-14.6,4.6c-0.2,0.1-0.5,0-0.7-0.1
		c-0.2-0.2-0.4-0.5-0.5-1l-0.2-0.8c-0.1-0.2-0.1-0.4-0.2-0.6c0-0.2,0-0.4,0-0.5c0-0.2,0.1-0.3,0.3-0.5l6.4-8.2
		c0.2-0.2,0.4-0.5,0.6-0.7s0.5-0.5,0.7-0.7l-0.1-0.1c-0.2,0.1-0.5,0.2-0.8,0.3c-0.3,0.1-0.6,0.2-0.9,0.3l-7.8,2.5
		c-0.2,0.1-0.5,0-0.7-0.1c-0.2-0.2-0.4-0.5-0.5-1L474.7,220z"/>
	<path d="M479.8,236.8c-0.1-0.6,0.1-0.9,0.7-1.1l14.5-3.3c0.6-0.1,1,0.1,1.1,0.7l1.9,8.4c0.1,0.5-0.2,0.8-1,1l-0.7,0.2
		c-0.8,0.2-1.2,0-1.3-0.4l-1.3-5.6l-3.4,0.8l1.1,5c0.1,0.5-0.2,0.8-1,0.9l-0.7,0.2c-0.8,0.2-1.2,0-1.3-0.4l-1.1-5l-3.8,0.9l1.3,5.6
		c0.1,0.5-0.2,0.8-1,1l-0.7,0.2c-0.8,0.2-1.2,0-1.3-0.4L479.8,236.8z"/>
	<path d="M482.7,251c-0.1-0.5-0.1-0.9,0-1.1c0.1-0.2,0.3-0.4,0.5-0.4l14.9-2.2c0.6-0.1,1,0.2,1.1,0.7l0.7,4.7
		c0.3,2.1,0.1,3.7-0.6,4.8c-0.7,1.1-1.8,1.7-3.3,2c-0.7,0.1-1.3,0.1-1.8,0c-0.6-0.1-1-0.3-1.5-0.7c-0.4-0.3-0.8-0.8-1.1-1.3l-0.1,0
		c-0.1,0.3-0.2,0.6-0.5,0.9c-0.3,0.3-0.6,0.6-1,0.8l-4.5,2.6c-0.2,0.1-0.3,0.2-0.4,0.2c-0.1,0.1-0.3,0.1-0.3,0.1
		c-0.2,0-0.4-0.1-0.5-0.2c-0.1-0.2-0.2-0.5-0.3-1.1l-0.1-1c-0.1-0.3-0.1-0.7,0-0.9s0.2-0.5,0.5-0.6l4.1-2.4c0.3-0.2,0.6-0.4,0.7-0.6
		c0.2-0.2,0.3-0.5,0.4-0.8s0-0.7,0-1.3l-0.1-0.9l-5.7,0.8c-0.3,0-0.5,0-0.6-0.2c-0.2-0.2-0.3-0.6-0.4-1.1L482.7,251z M492.4,251.9
		l0.3,2.1c0.1,0.7,0.4,1.2,0.7,1.5s0.9,0.4,1.7,0.2c0.7-0.1,1.3-0.4,1.5-0.7c0.3-0.4,0.4-0.9,0.3-1.7l-0.3-2.1L492.4,251.9z"/>
</g>
</svg>
