<svg xmlns="http://www.w3.org/2000/svg" width="130.111" height="372.896" viewBox="0 0 130.111 372.896"><defs><style>.a{fill:none;stroke:#60c2be;stroke-width:2px;}.b,.c{fill:#ec4956;}.b{stroke:rgba(0,0,0,0);}</style></defs><g transform="translate(-923.996 -4653.793)"><g transform="translate(23384 -11253)"><path class="a" d="M-22364.279,16423.91c0-18.264,2.191-13.7,4.469-48.584.619-9.479.092-20.939,0-30.521s-7.389-16.355-7.9-9.493,6.9,9.6,7.9-14.948-11.941-83.952-11.941-94.679" transform="translate(-1.132 -301.326)"/><path class="a" d="M-22392.494,16382.7c2.684-17.246-1.164-19.964,0-31.051" transform="translate(27.154 -194.337)"/><path class="a" d="M-22393.92,16385.543c-.139-16.084,2.26-18.1,0-36.973" transform="translate(27.154 -139.337)"/><g transform="translate(-22337.127 16162.233) rotate(180)"><path class="b" d="M21101.016-18652.926a10.167,10.167,0,0,1-5.139-1.447,10.273,10.273,0,0,1-1.93-1.437c-.006-.006-.008-.008-.008-.01s0,0-.008.008a10.268,10.268,0,0,1-1.934,1.438,10.251,10.251,0,0,1-5.141,1.449,9.435,9.435,0,0,1-1.512-.121,7.848,7.848,0,0,1-5.6-4.191,31.538,31.538,0,0,1-2.9-7.895c-.053-.2-.1-.4-.154-.6l-.043-.166c-.937-3.621-1.613-6.234-3.055-8.221-1.514-2.084-3.783-3.326-7.588-4.158a12.514,12.514,0,0,0,6.131-4.9,47.3,47.3,0,0,0,4.047-7.531l.012-.021c3.393-7.3,6.9-14.855,17.752-14.855s14.355,7.551,17.744,14.854l.012.021a47.3,47.3,0,0,0,4.047,7.531,12.521,12.521,0,0,0,6.133,4.9c-3.8.832-6.074,2.078-7.592,4.164-1.445,2-2.121,4.613-3.057,8.236-.055.211-.109.424-.164.641l-.027.1a31.363,31.363,0,0,1-2.9,7.895,7.853,7.853,0,0,1-5.607,4.191A9.576,9.576,0,0,1,21101.016-18652.926Zm-6.7-38.977h0c-.727,4.293-1.383,6.76-2.951,8.326s-4.031,2.223-8.324,2.949c4.291.725,6.758,1.379,8.324,2.947s2.225,4.031,2.951,8.322c.727-4.293,1.381-6.758,2.945-8.322s4.033-2.223,8.324-2.947c-4.293-.727-6.76-1.383-8.324-2.949s-2.221-4.035-2.945-8.326Z" transform="translate(-21066 18705.58)"/></g><g transform="translate(-22329.893 16250.784) rotate(153)"><path class="c" d="M63.666,23.132C53.581,21.27,40.785,36.458,31.753,28.505,22.509,36.209,10.132,20.677,0,22.263.085,16.022,11.038.223,31.811.012V0c.112,0,.221.007.332.01s.22,0,.332,0V.022C53.233.8,63.75,16.891,63.666,23.132ZM31.981,11.8a55.846,55.846,0,0,0-21.522,4.746s6.555-.071,11.845.365c3.78.312,9.586,1.537,9.586,1.537s5.839-1.066,9.625-1.274c5.3-.292,11.851-.042,11.851-.042A55.839,55.839,0,0,0,31.981,11.8Z" transform="translate(0 0)"/></g><g transform="translate(-22334.631 16218.972) rotate(-172)"><path class="c" d="M67.139,19.375S45.811,42.137,33.569,30.421C22.454,42.4,0,19.375,0,19.375S11.409.671,33.441.009V0l.129,0L33.7,0V.009C55.731.671,67.139,19.375,67.139,19.375ZM33.57,11.851C31.205,16.13,19.6,16.478,19.6,16.478s4.493,3.04,13.889,3.04,14.05-3.04,14.05-3.04S35.409,16.122,33.57,11.851Z" transform="translate(0.99 -0.139)"/></g></g><g transform="translate(15 5)"><path class="a" d="M-22365.65,16433.164c-2.457-37.516,3.7-55.262,2.7-79.809s-3.891-73.883,0-107.121" transform="translate(23309.387 -11597.326)"/><path class="a" d="M-22393.486,16381.694c.764-12.324.66-20.529,1.865-31.465" transform="translate(23334.078 -11490.337)"/><path class="a" d="M-22392.951,16385.988c-1.393-11.7-1.928-18.526-1.357-35.595" transform="translate(23336.707 -11435.337)"/><g transform="translate(829.618 4590.74)"><path class="b" d="M30.129,35.42a12.583,12.583,0,0,1-5.352-1.248,12.55,12.55,0,0,1-5.35,1.248,13.95,13.95,0,0,1-7.893-2.689A28.6,28.6,0,0,1,5.4,26.814,48.194,48.194,0,0,1,.008,18.227L0,18.213.008,18.2a50.629,50.629,0,0,1,4.762-8.3,32.535,32.535,0,0,1,5.482-6.125A15.567,15.567,0,0,1,17.381.135,8.031,8.031,0,0,1,18.852,0a9.3,9.3,0,0,1,5.926,2.326A9.342,9.342,0,0,1,30.709,0,8.031,8.031,0,0,1,32.18.135a15.567,15.567,0,0,1,7.129,3.633,32.6,32.6,0,0,1,5.482,6.125,50.788,50.788,0,0,1,4.762,8.3l.006.018-.006.014a48.194,48.194,0,0,1-5.391,8.588,28.718,28.718,0,0,1-6.139,5.916A13.951,13.951,0,0,1,30.129,35.42ZM25.439,14.027v0a8.275,8.275,0,0,1-2.158,2.283,15.016,15.016,0,0,1-7.965,2.775,15.489,15.489,0,0,1,7.965,2.781,8.237,8.237,0,0,1,2.158,2.285A8.211,8.211,0,0,1,27.6,21.871a15.024,15.024,0,0,1,7.967-2.781A15.506,15.506,0,0,1,27.6,16.314a8.249,8.249,0,0,1-2.156-2.283v0Z" transform="translate(88.549 352.949)"/></g><g transform="translate(390.793 4369.584) rotate(-3)"><path class="c" d="M368.891,560.751a59.139,59.139,0,0,0-6.376-10.134c-5.079-6.821-11.342-14.917-22.262-9.073-10.919-5.844-17.182,2.252-22.261,9.073a59.115,59.115,0,0,0-6.376,10.134,34.226,34.226,0,0,0,28.353,15.169v.009l.284,0,.285,0v-.009A34.226,34.226,0,0,0,368.891,560.751Zm-28.639,3.756a53.856,53.856,0,0,1-20.369-4.364s4.987-7.251,20.085-7.559v0c.1,0,.189-.007.284-.009s.189.007.285.009v0c15.1.308,20.084,7.559,20.084,7.559A53.853,53.853,0,0,1,340.252,564.507Z" transform="translate(182.378 2.298)"/></g><g transform="translate(440.792 4215.531) rotate(7)"><path class="c" d="M606.8,558.261c-9.674,3.251-22.694-14.025-31.812-6.073-9.118-7.952-22.137,9.325-31.811,6.073,1.412,6.82,10.811,23.094,31.689,23.722v.009l.122,0,.123,0v-.009C595.992,581.355,605.391,565.081,606.8,558.261Zm-32.242,12.247a36.981,36.981,0,0,1-17.323-5.4s6.3-.373,9.447-2.595a23,23,0,0,0,7.776,1.927v.009l.1,0,.1,0v-.009a22.994,22.994,0,0,0,7.776-1.927c3.151,2.222,9.447,2.595,9.447,2.595A36.981,36.981,0,0,1,574.561,570.507Z"/></g></g></g></svg>