<svg xmlns="http://www.w3.org/2000/svg" width="1280" height="1845.383" viewBox="0 0 1280 1845.383">
  <defs>
    <style>
      .cls-1, .cls-4 {
        fill: none;
        stroke: #60c2be;
      }

      .cls-1 {
        stroke-width: 1.5px;
      }

      .cls-2 {
        fill: #4f408c;
      }

      .cls-3 {
        fill: #60c2be;
      }

      .cls-4 {
        stroke-width: 2px;
      }

      .cls-5, .cls-6 {
        fill: #ec4956;
      }

      .cls-6 {
        stroke: rgba(0,0,0,0);
      }
    </style>
  </defs>
  <g id="Group_87" data-name="Group 87" transform="translate(23444 -16915.25)">
    <path id="Path_211" data-name="Path 211" class="cls-1" d="M-22777.437,18629.016c0,27.377-4.43,34.959-4.43,71.336"/>
    <path id="Path_205" data-name="Path 205" class="cls-1" d="M-22839.449,18597.2c-.166,13.7-2.275,19.617,0,44.539"/>
    <g id="Group_64" data-name="Group 64" transform="translate(33 91)">
      <path id="Path_155" data-name="Path 155" class="cls-2" d="M1737.865,1448.258c-137.771,79.552-297.665,189.773-562.085-28.5s-339.581,150.6-717.762,150.6V1463.636c0-84.172,10-189.694,10-291.228H1727.865C1728.208,1246.972,1737.865,1275.376,1737.865,1448.258Z" transform="translate(-23935.018 17053.592)"/>
      <path id="Path_153" data-name="Path 153" class="cls-3" d="M1252.873,1097.112V2850.965s-130.994-63.1-206.246-129.616c-252.519-223.209-508.011-133.214-890.813,37.123-98.38,43.776-182.941,38.148-182.941,38.148V1097.112Z" transform="translate(-23449.873 15727.138)"/>
    </g>
    <path id="Path_196" data-name="Path 196" class="cls-1" d="M-22361.467,16378.818c0-19.9,1.754-24.364,1.656-34.488s-2.525-13.174-4.969-10.73,3.084,5.635,3.313,0-4.395-25.488-.508-29.172,7.041,0,16.52-3.506" transform="translate(-212.132 2242.674)"/>
    <path id="Path_196-2" data-name="Path 196" class="cls-1" d="M-22362.951,16344.344c-2.457-37.516-3.891-64.871,0-98.109" transform="translate(-304.613 2381.674)"/>
    <path id="Path_203" data-name="Path 203" class="cls-4" d="M-23099.25,18460.047c135.637,0,207.051,113.027,379.215,113.027s248.834-113.027,410.492-113.027" transform="translate(15)"/>
    <path id="Path_204" data-name="Path 204" class="cls-1" d="M-22839.559,18582.818a258.344,258.344,0,0,0,0-32.4c-.262-6.32-3.859-8.656-8.811-7.314s-10.346,3.818-18.041,1.957-12.572-10.635-8.686-13.691,11.26,4.83-.5,7.539-21.531-8.7-17.672-14.021,10.4,1.838,3.852,3.535-8.877-3.475-9.578-7.332"/>
    <g id="Group_82" data-name="Group 82" transform="translate(-23342.209 17959.531) rotate(7)">
      <path id="Path_201" data-name="Path 201" class="cls-5" d="M606.8,558.261c-9.674,3.251-22.694-14.025-31.812-6.073-9.118-7.952-22.137,9.325-31.811,6.073,1.412,6.82,10.811,23.094,31.689,23.722v.009l.122,0,.123,0v-.009C595.992,581.355,605.391,565.081,606.8,558.261Zm-32.242,12.247a36.981,36.981,0,0,1-17.323-5.4s6.3-.373,9.447-2.595a23,23,0,0,0,7.776,1.927v.009l.1,0,.1,0v-.009a22.994,22.994,0,0,0,7.776-1.927c3.151,2.222,9.447,2.595,9.447,2.595A36.981,36.981,0,0,1,574.561,570.507Z"/>
    </g>
    <g id="Group_81" data-name="Group 81" transform="translate(-23390.672 18120.584) rotate(-3)">
      <path id="Path_200" data-name="Path 200" class="cls-5" d="M368.891,560.751a59.139,59.139,0,0,0-6.376-10.134c-5.079-6.821-11.342-14.917-22.262-9.073-10.919-5.844-17.182,2.252-22.261,9.073a59.115,59.115,0,0,0-6.376,10.134,34.226,34.226,0,0,0,28.353,15.169v.009l.284,0,.285,0v-.009A34.226,34.226,0,0,0,368.891,560.751Zm-28.639,3.756a53.856,53.856,0,0,1-20.369-4.364s4.987-7.251,20.085-7.559v0c.1,0,.189-.007.284-.009s.189.007.285.009v0c15.1.308,20.084,7.559,20.084,7.559A53.853,53.853,0,0,1,340.252,564.507Z" transform="translate(182.378 2.298)"/>
    </g>
    <path id="Path_206" data-name="Path 206" class="cls-1" d="M-22745.412,18567.975c-12.088-.414-17.186-4.676-30.463-6.588s-27.352,5.787-31.674,1.4.863-5.93,2.941-5.27,3.2,3.246,2.32,8.947-1.686,27.49-.68,34.686" transform="translate(26 5)"/>
    <g id="Group_76" data-name="Group 76" transform="translate(-22890.381 18246.74)">
      <path id="Subtraction_6" data-name="Subtraction 6" class="cls-6" d="M30.129,35.42a12.583,12.583,0,0,1-5.352-1.248,12.55,12.55,0,0,1-5.35,1.248,13.95,13.95,0,0,1-7.893-2.689A28.6,28.6,0,0,1,5.4,26.814,48.194,48.194,0,0,1,.008,18.227L0,18.213.008,18.2a50.629,50.629,0,0,1,4.762-8.3,32.535,32.535,0,0,1,5.482-6.125A15.567,15.567,0,0,1,17.381.135,8.031,8.031,0,0,1,18.852,0a9.3,9.3,0,0,1,5.926,2.326A9.342,9.342,0,0,1,30.709,0,8.031,8.031,0,0,1,32.18.135a15.567,15.567,0,0,1,7.129,3.633,32.6,32.6,0,0,1,5.482,6.125,50.788,50.788,0,0,1,4.762,8.3l.006.018-.006.014a48.194,48.194,0,0,1-5.391,8.588,28.718,28.718,0,0,1-6.139,5.916A13.951,13.951,0,0,1,30.129,35.42ZM25.439,14.027v0a8.275,8.275,0,0,1-2.158,2.283,15.016,15.016,0,0,1-7.965,2.775,15.489,15.489,0,0,1,7.965,2.781,8.237,8.237,0,0,1,2.158,2.285A8.211,8.211,0,0,1,27.6,21.871a15.024,15.024,0,0,1,7.967-2.781A15.506,15.506,0,0,1,27.6,16.314a8.249,8.249,0,0,1-2.156-2.283v0Z" transform="translate(88.549 352.949)"/>
    </g>
    <path id="Path_207" data-name="Path 207" class="cls-1" d="M-22712.836,18655.42c-5.391-24.752-.314-82.285-6.959-82.7"/>
    <g id="Group_74" data-name="Group 74" transform="translate(-22680.941 18668.551) rotate(151)">
      <path id="Path_191" data-name="Path 191" class="cls-5" d="M63.666,23.132C53.581,21.27,40.785,36.458,31.753,28.505,22.509,36.209,10.132,20.677,0,22.263.085,16.022,11.038.223,31.811.012V0c.112,0,.221.007.332.01s.22,0,.332,0V.022C53.233.8,63.75,16.891,63.666,23.132ZM31.981,11.8a55.846,55.846,0,0,0-21.522,4.746s6.555-.071,11.845.365c3.78.312,9.586,1.537,9.586,1.537s5.839-1.066,9.625-1.274c5.3-.292,11.851-.042,11.851-.042A55.839,55.839,0,0,0,31.981,11.8Z" transform="translate(0 0)"/>
    </g>
    <path id="Path_208" data-name="Path 208" class="cls-1" d="M-22666.082,18608.617c0-20.1,3.781-37.939,8.469-40.471s8.883-1.729,13.127.779,6.746,15.121,7.332,24.7,1.332,42.422,7.447,68.717"/>
    <g id="Group_73" data-name="Group 73" transform="translate(-22603.127 18705.234) rotate(180)">
      <path id="Subtraction_7" data-name="Subtraction 7" class="cls-6" d="M21101.016-18652.926a10.167,10.167,0,0,1-5.139-1.447,10.273,10.273,0,0,1-1.93-1.437c-.006-.006-.008-.008-.008-.01s0,0-.008.008a10.268,10.268,0,0,1-1.934,1.438,10.251,10.251,0,0,1-5.141,1.449,9.435,9.435,0,0,1-1.512-.121,7.848,7.848,0,0,1-5.6-4.191,31.538,31.538,0,0,1-2.9-7.895c-.053-.2-.1-.4-.154-.6l-.043-.166c-.937-3.621-1.613-6.234-3.055-8.221-1.514-2.084-3.783-3.326-7.588-4.158a12.514,12.514,0,0,0,6.131-4.9,47.3,47.3,0,0,0,4.047-7.531l.012-.021c3.393-7.3,6.9-14.855,17.752-14.855s14.355,7.551,17.744,14.854l.012.021a47.3,47.3,0,0,0,4.047,7.531,12.521,12.521,0,0,0,6.133,4.9c-3.8.832-6.074,2.078-7.592,4.164-1.445,2-2.121,4.613-3.057,8.236-.055.211-.109.424-.164.641l-.027.1a31.363,31.363,0,0,1-2.9,7.895,7.853,7.853,0,0,1-5.607,4.191A9.576,9.576,0,0,1,21101.016-18652.926Zm-6.7-38.977h0c-.727,4.293-1.383,6.76-2.951,8.326s-4.031,2.223-8.324,2.949c4.291.725,6.758,1.379,8.324,2.947s2.225,4.031,2.951,8.322c.727-4.293,1.381-6.758,2.945-8.322s4.033-2.223,8.324-2.947c-4.293-.727-6.76-1.383-8.324-2.949s-2.221-4.035-2.945-8.326Z" transform="translate(-21066 18705.58)"/>
    </g>
    <g id="Group_75" data-name="Group 75" transform="translate(-22635.631 18638.973) rotate(-172)">
      <path id="Path_192" data-name="Path 192" class="cls-5" d="M67.139,19.375S45.811,42.137,33.569,30.421C22.454,42.4,0,19.375,0,19.375S11.409.671,33.441.009V0l.129,0L33.7,0V.009C55.731.671,67.139,19.375,67.139,19.375ZM33.57,11.851C31.205,16.13,19.6,16.478,19.6,16.478s4.493,3.04,13.889,3.04,14.05-3.04,14.05-3.04S35.409,16.122,33.57,11.851Z" transform="translate(0.99 -0.139)"/>
    </g>
    <path id="Path_212" data-name="Path 212" class="cls-6" d="M838.331,125.146c8.674,0,15.743-2.336,21.007-7.942s13.527-23,13.527-23a35.216,35.216,0,0,1-4.522.341,21.258,21.258,0,0,1-6.277-.772c-4.462-1.434-7.44-3.309-13.056-3.309-4.071,0-7.851,2.366-9.616,3.68a1.79,1.79,0,0,1-2.116,0c-1.765-1.314-5.545-3.68-9.616-3.68-5.615,0-8.593,1.875-13.056,3.309a21.256,21.256,0,0,1-6.277.772,35.205,35.205,0,0,1-4.522-.341s8.262,17.407,13.527,23S829.668,125.146,838.331,125.146ZM809.667,99.1c-.048-.078-.094-.152-.138-.225-.44-.724-.666-1.187-.7-1.267l.07.026.242.087c.208.074.513.182.907.316q.3.1.661.223l.682.225.766.247.356.113c.364.115.752.235,1.16.359s.838.253,1.286.384c1.795.525,3.9,1.1,6.192,1.642q.574.136,1.162.269,1.177.266,2.407.516.615.124,1.239.242t1.257.23q.949.167,1.914.315c1.5.23,3.021.422,4.541.561q.651.06,1.3.107t1.3.079q.647.032,1.29.049t1.28.017a63.84,63.84,0,0,0,9.072-.716q.968-.141,1.924-.3c.849-.143,1.689-.3,2.515-.459,1.859-.364,3.648-.769,5.319-1.182q.557-.138,1.1-.277l.534-.139q.529-.138,1.037-.277c1.355-.368,2.594-.728,3.682-1.06.408-.124.8-.244,1.16-.359s.706-.224,1.022-.327.608-.2.873-.288l.494-.167c.763-.26,1.217-.426,1.294-.454h0c-.013.026-.048.1-.1.205-.028.054-.059.114-.1.187s-.1.186-.164.3-.134.235-.213.368c-.119.2-.257.427-.415.674q-.157.247-.342.522-.092.137-.191.28c-3.223,4.679-11.822,14.172-28.5,14.172C820.809,114.313,812.222,103.206,809.667,99.1Z" transform="translate(-23510.35 18762.143) rotate(-9)"/>
    <path id="Path_210" data-name="Path 210" class="cls-6" d="M850.051,342.125c-7.673-5.7-14.508-4.911-21.047.7a38.724,38.724,0,0,1-14.874,8.015s12.206,23.019,35.921,23.019,35.922-23.019,35.922-23.019a38.725,38.725,0,0,1-14.874-8.015C864.559,337.214,857.724,336.423,850.051,342.125Zm0,17.1c-10.128,0-18.663-7.6-19.182-7.879a74.295,74.295,0,0,0,38.365,0C868.714,351.628,860.18,359.223,850.051,359.223Z" transform="translate(-23567.969 18221.191) rotate(9)"/>
    <path id="Path_213" data-name="Path 213" class="cls-6" d="M689.927,224.551c-4.115,0-6.185,1.768-7.038,2.808a.623.623,0,0,1-1.013,0c-.853-1.04-2.924-2.808-7.039-2.808-8.283,0-21.3,14.983-21.3,14.983s2.577.871,4.808,4.95c2.524,4.63,7.776,13.028,24.039,13.028s21.515-8.4,24.048-13.028c2.222-4.079,4.808-4.95,4.808-4.95S698.21,224.551,689.927,224.551Zm-7.545,20.324c-16.237,0-22.813-5.643-22.813-5.643a40.578,40.578,0,0,0,11.047-3.626,8.96,8.96,0,0,1,4.052-1H690.1a8.96,8.96,0,0,1,4.052,1,40.574,40.574,0,0,0,11.046,3.626S698.628,244.875,682.382,244.875Z" transform="matrix(0.996, -0.087, 0.087, 0.996, -23272.945, 18448.84)"/>
  </g>
</svg>
