<svg xmlns="http://www.w3.org/2000/svg" width="59.998" height="59.998" viewBox="0 0 59.998 59.998"><defs><style>.a{fill:#e5c46d;}.b{fill:#fff;}</style></defs><g transform="translate(-7999.002 -4055.492)"><path class="a" d="M28708-14057.509a29.809,29.809,0,0,1-11.676-2.357,29.893,29.893,0,0,1-9.533-6.428,29.891,29.891,0,0,1-6.428-9.535,29.813,29.813,0,0,1-2.357-11.676,29.821,29.821,0,0,1,2.357-11.677,29.9,29.9,0,0,1,6.428-9.537,29.9,29.9,0,0,1,9.533-6.431,29.8,29.8,0,0,1,11.676-2.358,29.808,29.808,0,0,1,11.68,2.358,29.9,29.9,0,0,1,9.537,6.431,29.884,29.884,0,0,1,6.43,9.537,29.821,29.821,0,0,1,2.357,11.677,29.813,29.813,0,0,1-2.357,11.676,29.875,29.875,0,0,1-6.43,9.535,29.9,29.9,0,0,1-9.537,6.428A29.821,29.821,0,0,1,28708-14057.509Zm0-48a17.877,17.877,0,0,0-7,1.414,17.938,17.938,0,0,0-5.721,3.857,17.959,17.959,0,0,0-3.855,5.721,17.887,17.887,0,0,0-1.414,7.009,17.881,17.881,0,0,0,1.414,7.007,17.959,17.959,0,0,0,3.855,5.721,17.938,17.938,0,0,0,5.721,3.859,17.892,17.892,0,0,0,7,1.415,17.885,17.885,0,0,0,12.732-5.274,18.008,18.008,0,0,0,3.857-5.721,17.924,17.924,0,0,0,1.412-7.007,17.884,17.884,0,0,0-5.27-12.729A17.89,17.89,0,0,0,28708-14105.506Z" transform="translate(-20679 18173)"/><path class="b" d="M1112.222-2942.091a1.719,1.719,0,0,1-.835-.216,1.722,1.722,0,0,1-.887-1.506v-17.222a1.722,1.722,0,0,1,.887-1.505,1.717,1.717,0,0,1,.835-.217,1.719,1.719,0,0,1,.912.262l13.777,8.611a1.715,1.715,0,0,1,.809,1.461,1.713,1.713,0,0,1-.809,1.46l-13.777,8.611A1.725,1.725,0,0,1,1112.222-2942.091Z" transform="translate(6911.764 7038.25)"/></g></svg>