<svg xmlns="http://www.w3.org/2000/svg" width="60" height="58.465" viewBox="0 0 60 58.465"><defs><style>.a{fill:#fff;}.b{fill:#d07e43;}</style></defs><g transform="translate(-8202 -4359)"><rect class="a" width="26.808" height="22.195" rx="2" transform="translate(8213.033 4383.996)"/><g transform="translate(8202 4359)"><g transform="translate(0 0)"><path class="b" d="M55.647,19.628H37.1L43.685,8.821a1.987,1.987,0,1,0-3.393-2.068L32.445,19.628h-4.89L19.709,6.753a1.987,1.987,0,0,0-3.393,2.068L22.9,19.628H4.353A4.358,4.358,0,0,0,0,23.981v35.93a4.358,4.358,0,0,0,4.353,4.353H55.647A4.358,4.358,0,0,0,60,59.911V23.981A4.358,4.358,0,0,0,55.647,19.628ZM42.076,54.689a2.366,2.366,0,0,1-2.366,2.366H9.429a2.366,2.366,0,0,1-2.366-2.366V29.2a2.366,2.366,0,0,1,2.366-2.366H39.71A2.366,2.366,0,0,1,42.076,29.2Zm8.757-.756a4.106,4.106,0,1,1,4.106-4.106A4.111,4.111,0,0,1,50.833,53.932Zm0-15.762a4.106,4.106,0,1,1,4.106-4.106A4.111,4.111,0,0,1,50.833,38.171Z" transform="translate(0 -5.8)"/></g></g></g></svg>