<svg xmlns="http://www.w3.org/2000/svg" id="114a5a2f-c4cc-4605-aef4-b02399dd7377" data-name="Layer 1" viewBox="0 0 40 40"><defs><style>.\37 160b5aa-976a-4195-9a16-d3a9bc64429d{fill:#007ab9;}.dd82b545-c90d-4b66-a234-fcc5ea4aa928{fill:#fff;}</style></defs><title>icon-linkedin</title><circle class="7160b5aa-976a-4195-9a16-d3a9bc64429d" cx="20" cy="20" r="20"/><path class="dd82b545-c90d-4b66-a234-fcc5ea4aa928" d="M31.95,21.61v8.25H27.17V22.16c0-1.93-.69-3.25-2.42-3.25a2.62,2.62,0,0,0-2.45,1.75,3.27,3.27,0,0,0-.16,1.17v8H17.36s0.06-13,0-14.38h4.78v2l0,0h0v0a4.75,4.75,0,0,1,4.31-2.37c3.15,0,5.5,2.06,5.5,6.47h0ZM12.35,8.55a2.49,2.49,0,1,0-.42,5h0.39a2.49,2.49,0,0,0,.42-5H12.35ZM9.93,29.86h4.78V15.48H9.93V29.86Z" transform="translate(0 0)"/></svg>