<svg xmlns="http://www.w3.org/2000/svg" width="1280.014" height="1480.949" viewBox="0 0 1280.014 1480.949"><defs><style>.a{fill:#4f408c;}.b{fill:#60c2be;}</style></defs><g transform="translate(23852.014 -17224)"><path class="a" d="M1737.865,1448.258c-137.771,79.552-297.665,189.773-562.085-28.5s-339.581,150.6-717.762,150.6V134.678c177.719-77.057,384.574-60.33,692.834,85.74s368.42,67.637,587.014-61.15C1738.208,233.831,1737.865,1275.376,1737.865,1448.258Z" transform="translate(-24310.018 17134.592)"/><path class="b" d="M-27.127,1496.046c189.283-63.052,418.877-49.117,653.341,129.144,299.858,227.979,461.422,135.839,626.645,26.6V2850.965s-130.981-63.1-206.233-129.616c-252.519-223.209-508.011-133.214-890.813,37.123-98.38,43.776-182.955,38.148-182.955,38.148S-27.127,1665.948-27.127,1496.046Z" transform="translate(-23824.873 15808.138)"/></g></svg>