<svg xmlns="http://www.w3.org/2000/svg" width="2267.852" height="1353.714" viewBox="0 0 2267.852 1353.714"><defs><style>.a{fill:#7dd5d1;}</style></defs><path class="a" d="M2047.41,2384.9c0,78.662-5.924,198.735-189.727,247.984s252.817,165.537-117.35-6.458-186.573,383.094-517.1,86.9-567.026,37.234-747.458-7.021S316.682,2440.752,42.422,2543.12s-260.985-303.278-260.985-303.278-6.917-489.727,5.8-594.594S-93.954,1340.816,129.6,1520.521s423.89,279.792,591.019,151.546,280.871-181.753,423.734-50.183,222.791,218.435,347.528,185.011,216.265-237.051,363.1-276.395,192.43,50.317,192.43,276.395Z" transform="translate(220.441 -1448.308)"/></svg>