<svg xmlns="http://www.w3.org/2000/svg" width="144.742" height="143.008" viewBox="0 0 144.742 143.008"><defs><style>.a{fill:#fff;stroke:#e6b6a4;stroke-width:1.5px;}.b{font-size:14px;font-family:OpenSans-SemiBold, Open Sans;font-weight:600;}</style></defs><g transform="translate(-197.285 -2917.107)"><path class="a" d="M72.9,102.5c9.182-38.161,38.439-51.508,64.951-42.187s30.015,31.563,25.671,50.231c-5.9,25.348-25.618,50.189-45.8,46.846-11.1-2.043-5.1,9.7-9.007,7.226S63.716,140.658,72.9,102.5Z" transform="translate(278.722 2826.529) rotate(50)"/><g transform="translate(262.706 2956.159) rotate(1)"><path d="M18.251,9.125A9.125,9.125,0,0,0,0,9.125a37.3,37.3,0,0,0,.844,6.817,36.058,36.058,0,0,1,.815,6.512,5.807,5.807,0,1,0,11.614,0,6.394,6.394,0,0,0-.118-1.225c-.4-1.978,1.052-4.281,2.423-5.651A9.066,9.066,0,0,0,18.251,9.125ZM11.53,21.562a4.739,4.739,0,0,1,.084.892,4.148,4.148,0,1,1-8.3,0,37.3,37.3,0,0,0-.844-6.817,36.058,36.058,0,0,1-.815-6.512A7.466,7.466,0,1,1,14.4,14.4C12.663,16.146,10.994,18.941,11.53,21.562Z"/><g transform="translate(3.318 3.318)"><path d="M66.892,60.1A5.815,5.815,0,0,0,60,65.809a33.9,33.9,0,0,0,.787,6.179c.13.691.265,1.406.385,2.118a2.94,2.94,0,0,0,5.788.122,6.032,6.032,0,0,0-1.075-5.465,5.784,5.784,0,0,0-4.2-2.118q-.023-.422-.024-.837a4.149,4.149,0,1,1,7.081,2.934l1.174,1.173A5.81,5.81,0,0,0,66.892,60.1ZM64.6,69.816a4.461,4.461,0,0,1,.731,4.087,1.286,1.286,0,0,1-1.258,1.031,1.3,1.3,0,0,1-1.267-1.105c-.123-.727-.259-1.449-.392-2.153-.217-1.154-.428-2.272-.571-3.355A4.131,4.131,0,0,1,64.6,69.816Z" transform="translate(-60 -60.002)"/></g><g transform="translate(20.853 13.661) rotate(21)"><rect width="8.136" height="1.659"/></g><g transform="translate(18.029 17.873) rotate(31)"><g transform="translate(0.226 0) rotate(3)"><rect width="1.659" height="7.53" transform="matrix(0.368, -0.93, 0.93, 0.368, 0, 1.543)"/></g></g><g transform="translate(22.388 4.795) rotate(18)"><g transform="translate(0 0)"><rect width="7.973" height="1.659" transform="translate(0 3.565) rotate(-26.565)"/></g></g></g><text class="b" transform="translate(234 3003)"><tspan x="0" y="0">Geluid aan!</tspan></text></g></svg>