<svg xmlns="http://www.w3.org/2000/svg" width="60" height="52.506" viewBox="0 0 60 52.506"><defs><style>.a{fill:#fff;}.b{fill:#4f408c;}</style></defs><g transform="translate(0 -31.979)"><circle class="a" cx="7.5" cy="7.5" r="7.5" transform="translate(11.25 58.234)"/><path class="b" d="M56.25,46.984H13.939L43.793,35.61A1.876,1.876,0,0,0,42.458,32.1L3.082,47.1l-.03.022A3.7,3.7,0,0,0,0,50.734v30a3.754,3.754,0,0,0,3.75,3.75h52.5A3.751,3.751,0,0,0,60,80.734v-30A3.754,3.754,0,0,0,56.25,46.984Zm-37.5,30A11.25,11.25,0,1,1,30,65.734,11.264,11.264,0,0,1,18.75,76.984Zm33.75,0h-15v-3.75h15Zm0-7.5h-15v-3.75h15Zm0-7.5h-15v-3.75h15Z" transform="translate(0 0)"/></g></svg>