<svg xmlns="http://www.w3.org/2000/svg" width="2315.188" height="499.936" viewBox="0 0 2315.188 499.936"><defs><style>.a,.b,.c,.d{fill:none;stroke-linecap:round;}.a,.b,.c{stroke:rgba(0,0,0,0);}.b,.f{opacity:0.5;}.c,.g{opacity:0.75;}.d{stroke:#7dd5d1;stroke-width:2px;stroke-dasharray:10;}.e,.f,.g{fill:#fff;}</style></defs><g transform="translate(21953.301 -22769.221)"><g transform="translate(-20186.094 22717.326)"><g transform="translate(-97.077 72.644) rotate(8)"><path class="a" d="M377.573,140.566a.821.821,0,0,1-.382-.093.83.83,0,0,1-.354-1.119c1.448-2.786,2.219-4.4,2.227-4.416a.829.829,0,1,1,1.5.714c-.008.016-.79,1.652-2.251,4.468A.833.833,0,0,1,377.573,140.566Z" transform="translate(168.291 -134.466)"/><path class="a" d="M2.2,538.355c-1.341.008-2.7-.005-4.049-.016a.829.829,0,0,1-.823-.836.83.83,0,0,1,.83-.823h.007c1.348.012,2.7.011,4.036.016q2.978,0,5.937-.04H8.15a.83.83,0,0,1,.009,1.659Q5.193,538.355,2.2,538.355Zm-14.03-.2h-.025c-3.311-.1-6.676-.231-10-.4a.826.826,0,0,1-.787-.869.82.82,0,0,1,.869-.787c3.311.165,6.665.3,9.965.393a.832.832,0,0,1,.806.855A.83.83,0,0,1-11.827,538.153Zm29.961-.076a.83.83,0,0,1-.027-1.659c3.325-.114,6.675-.268,9.96-.453a.829.829,0,1,1,.093,1.656c-3.3.186-6.659.34-10,.454Zm19.942-1.128a.83.83,0,0,1-.062-1.658c3.313-.26,6.652-.56,9.926-.892a.83.83,0,0,1,.167,1.651c-3.286.333-6.638.634-9.965.9Zm19.869-2.012a.829.829,0,0,1-.1-1.652c3.265-.406,6.588-.855,9.876-1.339a.83.83,0,1,1,.242,1.642c-3.3.486-6.635.938-9.913,1.343A.681.681,0,0,1,57.945,534.937ZM77.7,532.029a.83.83,0,0,1-.139-1.647c3.264-.559,6.563-1.161,9.806-1.793a.83.83,0,0,1,.317,1.63c-3.256.633-6.567,1.237-9.843,1.8A.851.851,0,0,1,77.7,532.029Zm19.6-3.817a.829.829,0,0,1-.175-1.639c3.248-.714,6.515-1.469,9.71-2.248a.83.83,0,0,1,.393,1.613c-3.208.782-6.488,1.541-9.749,2.255A.929.929,0,0,1,97.3,528.212Zm19.406-4.728a.829.829,0,0,1-.215-1.63c3.212-.864,6.44-1.772,9.595-2.7a.829.829,0,0,1,.469,1.59c-3.168.932-6.408,1.845-9.632,2.71A.812.812,0,0,1,116.71,523.484Zm19.161-5.635a.83.83,0,0,1-.253-1.619c3.158-1.01,6.338-2.071,9.457-3.151a.829.829,0,0,1,.543,1.568c-3.131,1.086-6.324,2.148-9.494,3.163A.84.84,0,0,1,135.871,517.849Zm18.871-6.535a.829.829,0,0,1-.289-1.606c3.089-1.153,6.217-2.364,9.3-3.6a.83.83,0,1,1,.617,1.541c-3.092,1.237-6.234,2.451-9.335,3.607A.832.832,0,0,1,154.742,511.314Zm18.543-7.426a.829.829,0,0,1-.325-1.591c3.029-1.3,6.095-2.653,9.117-4.034a.83.83,0,0,1,.687,1.51c-3.031,1.384-6.111,2.746-9.151,4.048A.837.837,0,0,1,173.285,503.888Zm18.173-8.294a.829.829,0,0,1-.362-1.575c2.97-1.443,5.969-2.941,8.915-4.458a.829.829,0,1,1,.759,1.475c-2.957,1.524-5.969,3.029-8.951,4.477A.837.837,0,0,1,191.458,495.594Zm17.757-9.145a.83.83,0,0,1-.4-1.558c2.891-1.574,5.817-3.213,8.7-4.874a.829.829,0,1,1,.827,1.436c-2.891,1.667-5.828,3.313-8.731,4.895A.825.825,0,0,1,209.215,486.449Zm17.311-9.973a.829.829,0,0,1-.431-1.538c2.827-1.719,5.674-3.493,8.46-5.275a.829.829,0,1,1,.895,1.4c-2.8,1.789-5.654,3.573-8.493,5.3A.829.829,0,0,1,226.526,476.476Zm16.827-10.769a.829.829,0,0,1-.465-1.517c2.758-1.859,5.52-3.764,8.2-5.666a.83.83,0,0,1,.96,1.355c-2.7,1.907-5.466,3.82-8.236,5.686A.829.829,0,0,1,243.353,465.707Zm16.307-11.543a.83.83,0,0,1-.5-1.5c2.652-1.97,5.321-4,7.933-6.039a.829.829,0,0,1,1.021,1.307c-2.623,2.045-5.3,4.087-7.963,6.064A.828.828,0,0,1,259.66,454.164Zm15.756-12.286a.83.83,0,0,1-.527-1.472c2.548-2.084,5.122-4.238,7.646-6.4a.83.83,0,0,1,1.079,1.262c-2.534,2.171-5.117,4.333-7.675,6.424A.823.823,0,0,1,275.415,441.877Zm15.17-13a.831.831,0,0,1-.556-1.447c2.457-2.207,4.928-4.477,7.342-6.749a.83.83,0,0,1,1.139,1.209c-2.426,2.28-4.905,4.56-7.372,6.774A.83.83,0,0,1,290.586,428.876Zm14.553-13.692a.829.829,0,0,1-.581-1.42c2.355-2.32,4.716-4.7,7.021-7.083a.83.83,0,0,1,1.193,1.155c-2.315,2.388-4.686,4.781-7.049,7.11A.827.827,0,0,1,305.139,415.184Zm13.9-14.356a.82.82,0,0,1-.564-.22.83.83,0,0,1-.046-1.172c2.247-2.432,4.5-4.923,6.683-7.4a.829.829,0,1,1,1.244,1.1c-2.194,2.491-4.452,4.993-6.708,7.433A.826.826,0,0,1,319.043,400.828Zm13.209-15a.818.818,0,0,1-.532-.194.829.829,0,0,1-.1-1.168c2.13-2.538,4.256-5.135,6.319-7.715a.83.83,0,0,1,1.3,1.034c-2.073,2.593-4.207,5.2-6.346,7.747A.824.824,0,0,1,332.252,385.833Zm12.471-15.615a.839.839,0,0,1-.5-.169.83.83,0,0,1-.159-1.163c2-2.639,4-5.338,5.93-8.019a.83.83,0,1,1,1.347.969c-1.939,2.694-3.942,5.4-5.955,8.054A.831.831,0,0,1,344.723,370.218ZM356.4,353.994a.829.829,0,0,1-.685-1.3c1.873-2.75,3.724-5.547,5.505-8.315a.829.829,0,0,1,1.394.9c-1.786,2.779-3.646,5.59-5.528,8.352A.834.834,0,0,1,356.4,353.994Zm10.805-16.812a.817.817,0,0,1-.429-.121.827.827,0,0,1-.281-1.137c1.729-2.863,3.424-5.758,5.036-8.607a.83.83,0,0,1,1.444.818c-1.618,2.862-3.321,5.771-5.06,8.647A.826.826,0,0,1,367.205,337.181Zm9.835-17.4a.84.84,0,0,1-.386-.1.831.831,0,0,1-.348-1.122c1.558-2.961,3.073-5.954,4.5-8.9a.829.829,0,0,1,1.492.725c-1.435,2.957-2.958,5.966-4.523,8.944A.833.833,0,0,1,377.04,319.781Zm8.724-17.986a.831.831,0,0,1-.758-1.167c1.363-3.077,2.666-6.165,3.87-9.182a.829.829,0,1,1,1.54.616c-1.21,3.035-2.52,6.144-3.893,9.239A.83.83,0,0,1,385.764,301.8Zm7.4-18.568a.861.861,0,0,1-.276-.046.83.83,0,0,1-.507-1.059c1.119-3.179,2.159-6.363,3.091-9.465a.83.83,0,1,1,1.589.478c-.94,3.126-1.987,6.335-3.116,9.538A.828.828,0,0,1,393.164,283.228Zm5.731-19.144a.785.785,0,0,1-.2-.025.827.827,0,0,1-.609-1c.8-3.3,1.494-6.57,2.057-9.729a.83.83,0,0,1,1.634.292c-.569,3.192-1.268,6.5-2.08,9.828A.829.829,0,0,1,398.895,264.083Zm-14.767-17.577a69.68,69.68,0,0,1-7.252-.38.829.829,0,0,1-.738-.912.815.815,0,0,1,.912-.737,68.5,68.5,0,0,0,9.855.312.83.83,0,0,1,.068,1.658C386.026,246.487,385.067,246.507,384.128,246.507Zm12.714-1.164a.83.83,0,0,1-.146-1.646c1.627-.3,3.27-.654,4.917-1.068.289-3.108.445-6.14.458-9.02a.832.832,0,0,1,.831-.826h0a.829.829,0,0,1,.826.834c-.012,2.742-.151,5.616-.41,8.561q1.475-.406,2.948-.876a.83.83,0,0,1,.5,1.582c-1.22.388-2.447.747-3.674,1.074a.831.831,0,0,1-.823.451.841.841,0,0,1-.384-.139q-2.459.615-4.9,1.06A.793.793,0,0,1,396.841,245.343Zm-29.705-.961a.853.853,0,0,1-.2-.024,74.2,74.2,0,0,1-9.616-3.062.829.829,0,1,1,.613-1.541,72.524,72.524,0,0,0,9.4,2.992.83.83,0,0,1-.2,1.635Zm48.7-5.024a.83.83,0,0,1-.34-1.587c2.928-1.306,5.9-2.815,8.831-4.483a.829.829,0,0,1,.82,1.441c-2.98,1.695-6,3.228-8.975,4.556A.809.809,0,0,1,415.838,239.358Zm-67.116-2.491a.827.827,0,0,1-.442-.129,41.4,41.4,0,0,1-7.894-6.4.83.83,0,0,1,1.2-1.144,39.714,39.714,0,0,0,7.579,6.141.83.83,0,0,1-.445,1.532Zm84.483-7.332a.83.83,0,0,1-.467-1.514c2.647-1.81,5.336-3.8,7.99-5.9a.829.829,0,0,1,1.031,1.3c-2.686,2.129-5.4,4.138-8.086,5.97A.814.814,0,0,1,433.205,229.535Zm-30.852-5.062a.828.828,0,0,1-.823-.73,56.713,56.713,0,0,0-1.98-9.631.83.83,0,0,1,1.587-.483,58.462,58.462,0,0,1,2.04,9.915.831.831,0,0,1-.723.924A.856.856,0,0,1,402.353,224.473Zm-67.08-2.017a.828.828,0,0,1-.745-.465,31.036,31.036,0,0,1-2.921-9.791.83.83,0,1,1,1.647-.208,29.344,29.344,0,0,0,2.763,9.27.831.831,0,0,1-.38,1.11A.816.816,0,0,1,335.273,222.456Zm113.606-5.313a.829.829,0,0,1-.553-1.447c2.4-2.158,4.835-4.462,7.223-6.846a.83.83,0,1,1,1.172,1.175c-2.409,2.4-4.862,4.728-7.288,6.907A.826.826,0,0,1,448.879,217.143Zm-52.4-11.635a.831.831,0,0,1-.741-.453,91.6,91.6,0,0,0-4.949-8.565.83.83,0,0,1,1.387-.912,92.988,92.988,0,0,1,5.04,8.723.829.829,0,0,1-.361,1.115A.817.817,0,0,1,396.479,205.508Zm66.563-2.465a.83.83,0,0,1-.613-1.39c2.186-2.392,4.395-4.913,6.566-7.5a.829.829,0,1,1,1.269,1.068c-2.185,2.6-4.409,5.138-6.61,7.547A.826.826,0,0,1,463.042,203.043Zm-130.276-.06a.929.929,0,0,1-.157-.015.832.832,0,0,1-.661-.97,35.458,35.458,0,0,1,3.334-9.636.83.83,0,1,1,1.475.762,33.779,33.779,0,0,0-3.177,9.183A.829.829,0,0,1,332.766,202.984Zm52.652-14.04a.829.829,0,0,1-.616-.273,44.811,44.811,0,0,0-7.268-6.551.83.83,0,1,1,.96-1.354,46.365,46.365,0,0,1,7.539,6.793.829.829,0,0,1-.614,1.386Zm90.5-1.195a.829.829,0,0,1-.653-1.339c2.009-2.575,4.027-5.256,6-7.966a.829.829,0,1,1,1.341.977c-1.983,2.725-4.012,5.419-6.034,8.01A.822.822,0,0,1,475.921,187.749Zm-134.116-2.28a.83.83,0,0,1-.6-1.406,31.164,31.164,0,0,1,8.171-6.132.83.83,0,1,1,.759,1.476,29.487,29.487,0,0,0-7.737,5.808A.828.828,0,0,1,341.806,185.469Zm27.333-7.683a.838.838,0,0,1-.247-.037,24.828,24.828,0,0,0-7.411-1.151h-.024c-.7,0-1.408.032-2.1.094a.829.829,0,1,1-.149-1.651c.755-.069,1.533-.1,2.278-.1a26.507,26.507,0,0,1,7.9,1.226.829.829,0,0,1-.247,1.621Zm118.558-6.2a.829.829,0,0,1-.685-1.3c1.852-2.716,3.7-5.519,5.5-8.326a.829.829,0,0,1,1.4.893c-1.806,2.823-3.666,5.637-5.524,8.368A.834.834,0,0,1,487.7,171.585Zm10.784-16.847a.815.815,0,0,1-.426-.119.828.828,0,0,1-.285-1.137c1.728-2.875,3.415-5.779,5.018-8.63a.83.83,0,0,1,1.448.814c-1.613,2.866-3.309,5.783-5.044,8.671A.828.828,0,0,1,498.481,154.738Z" transform="translate(37.595 -131.205)"/><path class="a" d="M-28.114,440.826h-.058q-2.481-.175-4.973-.374a.828.828,0,0,1-.759-.893.821.821,0,0,1,.893-.76q2.483.2,4.955.373a.83.83,0,0,1,.77.885A.83.83,0,0,1-28.114,440.826Z" transform="translate(33.907 -34.875)"/></g><g transform="translate(410.352 52.346)"><path class="a" d="M383.636,115.7l-35.5-7.7L464.766,52.346Z" transform="translate(-348.138 -52.346)"/><path class="b" d="M378.665,115.7l2.109,29.609,11.649-20.2L459.8,52.346Z" transform="translate(-343.166 -52.346)"/><path class="c" d="M380.478,135.118l21.055-11.409-9.406-8.787Z" transform="translate(-342.871 -42.155)"/><path class="a" d="M390.5,125.112l26.363,32.948,41.01-105.715Z" transform="translate(-341.24 -52.346)"/></g></g><path class="d" d="M-19720.734,22881.012c-11.953,14.824-82.312,138.793-156.391,112.27s20.336-112.73,40.512-11.977-243.26,234.895-462.652,234.895-313.527-44.02-508.32-42.064-327.652,32.57-495.543,41.338-401.715-103.4-649.172-105.246"/><g transform="translate(-20165.094 22731.326)"><g transform="translate(410.352 52.346)"><path class="e" d="M383.636,115.7l-35.5-7.7L464.766,52.346Z" transform="translate(-348.138 -52.346)"/><path class="f" d="M378.665,115.7l2.109,29.609,11.649-20.2L459.8,52.346Z" transform="translate(-343.166 -52.346)"/><path class="g" d="M380.478,135.118l21.055-11.409-9.406-8.787Z" transform="translate(-342.871 -42.155)"/><path class="e" d="M390.5,125.112l26.363,32.948,41.01-105.715Z" transform="translate(-341.24 -52.346)"/></g></g></g></svg>