<svg xmlns="http://www.w3.org/2000/svg" width="60" height="35.154" viewBox="0 0 60 35.154"><defs><style>.a{fill:#db4a71;}.b{fill:#6bc9c5;}.c{fill:#fff;}</style></defs><g transform="translate(0 -106.01)"><path class="a" d="M30,35.154A29.1,29.1,0,0,1,17.536,32.5,28.856,28.856,0,0,1,9.1,26.4a56.6,56.6,0,0,1-6.074-7.7A26.731,26.731,0,0,0,0,14.765c1.066-.474,2.121-.841,3.142-1.2l.06-.021c.4-.141.82-.287,1.227-.435C8.007,11.8,11.151,10.346,13.37,5.9A10.677,10.677,0,0,1,28.839,1.791L30,2.563l1.157-.772A10.84,10.84,0,0,1,37.13,0a10.558,10.558,0,0,1,9.5,5.9,12.757,12.757,0,0,0,4.033,4.828,20.5,20.5,0,0,0,4.9,2.379l.677.234.01,0c1.217.42,2.476.854,3.745,1.415a26.569,26.569,0,0,0-2.979,3.861,46.586,46.586,0,0,1-9.3,10.6,27.35,27.35,0,0,1-7.545,4.22A29.709,29.709,0,0,1,30,35.154ZM27.82,12.3a14.4,14.4,0,0,0-7.911,2.391,17.622,17.622,0,0,1-3.8,1.912,18.607,18.607,0,0,0,17.022,5.952,18.8,18.8,0,0,0,10.717-5.916,18.414,18.414,0,0,1-3.118-1.54l-.007,0c-.1-.058-.187-.114-.271-.17L40.41,14.9c-.075-.048-.149-.1-.236-.155l-.042-.027-.043-.027A14.386,14.386,0,0,0,32.177,12.3H27.82Z" transform="translate(0 106.01)"/><path class="b" d="M15.819,13.933a17.815,17.815,0,0,1-8.8-2.329A21.507,21.507,0,0,1,0,5.177a21.06,21.06,0,0,0,3.442-2.01A16.731,16.731,0,0,1,13.147,0h5.346A16.732,16.732,0,0,1,28.2,3.167l.044.032.029.02.029.02c.108.079.218.155.339.239l.034.023c.1.066.2.135.3.2l.009.006a22.529,22.529,0,0,0,2.624,1.5A20.375,20.375,0,0,1,19.3,13.582,17.418,17.418,0,0,1,15.819,13.933Z" transform="translate(14.185 116.811)"/><path class="c" d="M12.077,8.49A17.136,17.136,0,0,1,5.4,7.159,16.09,16.09,0,0,1,0,3.472,15.808,15.808,0,0,0,3.307,1.93,13.216,13.216,0,0,1,10.184,0h3.787A13.21,13.21,0,0,1,20.849,1.93l.036.022.037.022c.093.058.169.1.24.145s.16.094.234.137l.007,0A16.653,16.653,0,0,0,24.114,3.5,16.739,16.739,0,0,1,14.8,8.275,17.345,17.345,0,0,1,12.077,8.49Z" transform="translate(17.919 119.327)"/></g></svg>