<svg xmlns="http://www.w3.org/2000/svg" width="3710.637" height="1473.618" viewBox="0 0 3710.637 1473.618"><defs><style>.a{opacity:0.2;}.aa,.ab,.b,.c,.d,.e,.f,.g,.h,.i,.j,.k,.l,.m,.n,.o,.p,.q,.r,.s,.t,.u,.v,.w,.x,.y,.z{fill:none;stroke:#000;stroke-linecap:round;stroke-linejoin:round;}.c{opacity:0.965;}.d{opacity:0.931;}.e{opacity:0.896;}.f{opacity:0.862;}.g{opacity:0.827;}.h{opacity:0.792;}.i{opacity:0.758;}.j{opacity:0.723;}.k{opacity:0.688;}.l{opacity:0.654;}.m{opacity:0.619;}.n{opacity:0.585;}.o{opacity:0.55;}.p{opacity:0.515;}.q{opacity:0.481;}.r{opacity:0.446;}.s{opacity:0.412;}.t{opacity:0.377;}.u{opacity:0.342;}.v{opacity:0.308;}.w{opacity:0.273;}.x{opacity:0.238;}.y{opacity:0.204;}.z{opacity:0.169;}.aa{opacity:0.135;}.ab{opacity:0.1;}</style></defs><g class="a" transform="translate(-113.5 -2609.5)"><g transform="translate(114 2610)"><g transform="translate(0 0)"><path class="b" d="M-21.811,750.133C317.562,483.482,451.772,876.748,432.1,1255.272,420.57,1477.287,659.63,1599.919,850.863,946.756,966.65,551.3,1113.982,333.511,1361.139,308.409c397.8-40.4,338.872,1290.779,875.5,1229.95C2810.34,1473.324,2517,448.066,3190.24,67.752" transform="translate(64.903 -67.752)"/><path class="c" d="M-22.221,737.364C322.744,492.343,454.691,852.016,446.3,1213.187c-4.8,211.8,233.323,337.342,424.362-277.031,116.5-370.387,258.025-602.087,510.32-619.981,402.695-28.56,346.436,1200.525,875.547,1155.679,567.174-46.369,299.808-1026.038,952.435-1396.393" transform="translate(63.657 -44.312)"/><path class="d" d="M-22.631,724.6C327.929,501.2,457.614,827.279,460.5,1171.1c1.927,201.6,237.089,329.363,429.966-245.541,115.993-345.726,252.89-590.98,510.365-601.61,407.531-16.823,353.918,1108.728,875.591,1081.409,560.564-29.36,319.253-961.787,951.267-1322.183" transform="translate(62.41 -20.873)"/><path class="e" d="M-23.042,711.824c356.156-201.758,483.583,90.718,497.747,417.184,8.658,191.387,241.82,321.63,435.569-214.048C1026.349,594.041,1158,335.022,1420.684,331.713,1833,326.521,1782.2,1349.485,2296.32,1338.851c554.079-11.458,338.7-897.528,950.1-1247.969" transform="translate(61.161 2.567)"/><path class="f" d="M-23.452,699.059C338.3,518.924,463.46,777.806,488.9,1086.923,504.294,1268.1,735.423,1400.732,930.078,904.36c116.142-296.161,242.539-568.953,510.45-564.877,417.073,6.339,369.161,926.864,875.688,932.868,547.644,6.489,358.14-833.278,948.936-1173.759" transform="translate(59.914 26.007)"/><path class="g" d="M-23.862,686.286c367.343-158.5,490.245,66.784,526.962,358.545,22.124,170.972,251.185,305.886,446.781-151.074,116.2-271.467,237.331-558.021,510.494-546.51,421.8,17.773,376.846,836.017,875.733,858.6,541.256,24.5,377.585-769.022,947.772-1099.541" transform="translate(58.668 49.45)"/><path class="h" d="M-24.272,673.516C348.663,536.643,468.7,728.442,517.3,1002.742c28.5,160.827,255.815,297.833,452.385-119.585,116.248-246.859,232.111-547.148,510.539-528.143,426.5,29.113,384.566,745.234,875.781,784.331,534.909,42.571,397.031-704.772,946.6-1025.331" transform="translate(57.421 72.889)"/><path class="i" d="M-24.683,660.747C353.852,545.5,471.525,703.762,531.5,960.657c35.174,150.65,260.425,289.6,457.988-88.1,116.3-222.351,226.883-536.329,510.583-509.773,431.2,40.361,392.319,654.516,875.825,710.056,528.6,60.72,416.476-640.517,945.438-951.117" transform="translate(56.172 96.329)"/><path class="j" d="M-25.093,647.974C359.033,554.359,474.359,679.1,545.7,918.565c41.852,140.485,265.042,281.168,463.592-56.611,116.373-197.977,221.655-525.566,510.627-491.406,435.893,51.524,400.1,563.879,875.87,635.79,522.324,78.945,435.921-576.266,944.274-876.9" transform="translate(54.926 119.772)"/><path class="k" d="M-25.5,635.2c389.718-71.984,502.709,19.239,585.4,241.271,48.538,130.328,269.7,272.457,469.2-25.118,116.494-173.776,216.423-514.855,510.668-473.044,440.587,62.611,407.9,473.322,875.923,561.519,516.065,97.251,455.362-512.011,943.1-802.689" transform="translate(53.679 143.212)"/><path class="l" d="M-25.913,622.435C369.4,572.082,480.072,629.812,574.1,834.39c55.233,120.179,274.5,263.411,474.8,6.367,116.712-149.785,211.2-504.189,510.712-454.673C2004.9,459.7,1975.323,768.927,2435.578,873.333c509.823,115.646,474.807-447.756,941.938-728.479" transform="translate(52.433 166.651)"/><path class="m" d="M-26.324,609.665C374.585,580.943,482.962,605.189,588.3,792.3c61.944,110.038,279.571,253.981,480.4,37.857,117.12-126.041,205.979-493.572,510.757-436.306,450,84.553,423.522,292.452,876.011,412.978,503.581,134.134,494.253-383.5,940.775-654.266" transform="translate(51.183 190.091)"/><path class="n" d="M-26.734,596.9c406.5-7.094,512.615-16.322,629.234,153.316,68.675,99.9,285.15,244.168,486.007,69.346,117.843-102.572,200.772-483,510.8-417.94,454.72,95.429,431.323,202.15,876.06,338.712,497.332,152.71,513.694-319.25,939.6-580.056" transform="translate(49.937 213.531)"/><path class="o" d="M-27.144,584.123c412.1,14.537,515.977-28.168,643.84,124,75.426,89.76,291.566,234.092,491.61,100.831,119.084-79.325,195.58-472.47,510.85-399.569,459.463,106.24,439.109,111.925,876.1,264.437,491.065,171.384,533.139-255,938.439-505.838" transform="translate(48.69 236.974)"/><path class="p" d="M-27.554,571.353c417.688,36.168,519.378-40.026,658.449,94.682,82.2,79.62,299.157,224.141,497.214,132.32,121.023-56.106,190.4-461.978,510.89-381.2,464.23,117,446.874,21.785,876.157,190.171,484.762,190.147,552.581-190.745,937.272-431.628" transform="translate(47.444 260.413)"/><path class="q" d="M-27.965,558.584c423.287,57.8,522.817-51.912,673.062,65.362,88.989,69.463,308.062,214.982,502.818,163.809,123.762-32.516,185.233-451.522,510.934-362.832,469.014,127.706,454.594-68.283,876.2,115.9,478.428,209,572.026-126.49,936.109-357.414" transform="translate(46.194 283.853)"/><path class="r" d="M-28.375,545.814C400.5,625.24,497.9,481.983,659.3,581.86,755.088,641.138,979.03,748.1,1167.718,777.154c125.847,19.381,180.082-441.1,510.979-344.465,473.822,138.372,462.275-158.27,876.246,41.63,472.04,227.934,591.471-62.235,934.941-283.2" transform="translate(44.948 307.293)"/><path class="s" d="M-28.785,533.041c434.47,101.057,529.75-75.79,702.28,6.727,102.608,49.076,327.693,201.524,514.025,226.787,130.376,17.676,174.951-430.715,511.023-326.1,478.654,149,469.9-248.192,876.294-32.641,465.588,246.952,610.917,2.02,933.774-208.986" transform="translate(43.701 330.736)"/><path class="t" d="M-29.195,520.271c440.066,122.688,533.22-87.793,716.89-22.589,109.42,38.842,336.521,197.055,519.629,258.272,133,44.462,169.836-420.352,511.068-307.732C2201.9,607.8,2195.862,110.162,2594.73,341.312c459.071,266.033,630.362,66.271,932.61-134.776" transform="translate(42.455 354.175)"/><path class="u" d="M-29.606,507.5c445.662,144.319,536.682-99.833,731.5-51.908,116.227,28.588,343.947,193.116,525.233,289.761,134.638,71.774,164.741-410.021,511.112-289.365,488.395,170.128,484.977-427.875,876.387-181.182,452.478,285.184,649.8,130.526,931.438-60.562" transform="translate(41.205 377.615)"/><path class="v" d="M-30.016,549.87C421.237,715.816,510.1,437.965,716.1,468.643c123.019,18.322,350.128,189.011,530.836,321.25,135.4,99.081,159.663-399.71,511.153-271C2251.392,699.542,2250.5,1.251,2634.521,263.446,3080.328,567.829,3303.769,458.223,3564.8,277.1" transform="translate(39.959 345.917)"/><path class="w" d="M-30.426,592.684C426.423,780.261,513.1,468.691,730.291,482.141c129.8,8.036,355.453,184.414,536.444,352.735,135.58,126.094,154.6-389.424,511.2-252.628,498.244,191.133,499.788-607.383,876.48-329.723,439.056,323.63,688.694,259.032,929.111,87.866" transform="translate(38.712 313.773)"/><path class="x" d="M-30.836,635.8C431.6,845,516.076,499.7,744.491,495.933c136.561-2.254,360.281,179.271,542.048,384.225C1421.981,1032.881,1436.1,501,1797.78,645.9c503.206,201.6,507.084-697.1,876.529-403.989,432.216,342.906,708.135,323.286,927.943,162.076" transform="translate(37.466 281.331)"/><path class="y" d="M-31.247,679.127c468.036,230.839,550.237-148.6,789.94-169.182,143.284-12.783,364.854,173.643,547.651,415.717,135.172,179.008,144.549-368.92,511.286-215.9C2325.822,921.809,2331.938-77.027,2694.2,231.5c425.291,362.21,727.58,387.541,926.776,236.29" transform="translate(36.216 248.67)"/><path class="z" d="M-31.657,722.62c473.632,252.466,553.57-160.569,804.549-198.5,150.015-22.993,369.335,167.631,553.255,447.207,134.869,205.015,139.547-358.691,511.331-197.528,513.2,222.464,521.463-876.483,876.617-552.53,418.282,381.53,747.025,451.792,925.612,310.5" transform="translate(34.97 215.848)"/><path class="aa" d="M-32.067,766.134c479.223,274.1,556.9-172.536,819.158-227.817,156.746-33.2,373.8,161.316,558.859,478.692,134.582,230.8,134.735-348.857,511.371-179.161,518.478,232.35,528-965.609,876.67-626.8,410.541,401.516,766.467,516.047,924.445,384.717" transform="translate(33.723 183.004)"/><path class="ab" d="M-32.477,809.955c484.815,295.729,560.233-184.5,833.767-257.137C964.767,509.411,1179.57,707.606,1365.753,1063c134.339,256.434,129.6-338.284,511.415-160.795,523.3,243.259,535.567-1055.863,876.714-701.067,404.016,420.178,785.911,580.3,923.277,458.927" transform="translate(32.477 149.852)"/></g></g></g></svg>